<?xml version="1.0" encoding="utf-8" standalone="no"?>
<!DOCTYPE svg PUBLIC "-//W3C//DTD SVG 1.1//EN"
  "http://www.w3.org/Graphics/SVG/1.1/DTD/svg11.dtd">
<svg xmlns:xlink="http://www.w3.org/1999/xlink" width="576pt" height="360pt" viewBox="0 0 576 360" xmlns="http://www.w3.org/2000/svg" version="1.1">
 <metadata>
  <rdf:RDF xmlns:dc="http://purl.org/dc/elements/1.1/" xmlns:cc="http://creativecommons.org/ns#" xmlns:rdf="http://www.w3.org/1999/02/22-rdf-syntax-ns#">
   <cc:Work>
    <dc:type rdf:resource="http://purl.org/dc/dcmitype/StillImage"/>
    <dc:date>2023-04-25T17:37:39.841286</dc:date>
    <dc:format>image/svg+xml</dc:format>
    <dc:creator>
     <cc:Agent>
      <dc:title>Matplotlib v3.7.1, https://matplotlib.org/</dc:title>
     </cc:Agent>
    </dc:creator>
   </cc:Work>
  </rdf:RDF>
 </metadata>
 <defs>
  <style type="text/css">*{stroke-linejoin: round; stroke-linecap: butt}</style>
 </defs>
 <g id="figure_1">
  <g id="patch_1">
   <path d="M 0 360 
L 576 360 
L 576 0 
L 0 0 
z
" style="fill: #ffffff"/>
  </g>
  <g id="axes_1">
   <g id="patch_2">
    <path d="M 66.71 303.28 
L 565.2 303.28 
L 565.2 16.92 
L 66.71 16.92 
z
" style="fill: #ffffff"/>
   </g>
   <g id="PolyCollection_1">
    <defs>
     <path id="m577a81cfc7" d="M 89.368636 -68.903785 
L 89.368636 -312.579484 
L 113.219833 -78.749628 
L 137.071029 -72.446039 
L 160.922225 -71.49644 
L 184.773421 -70.469195 
L 208.624617 -70.078289 
L 232.475813 -69.962267 
L 256.32701 -69.607952 
L 280.178206 -69.439273 
L 304.029402 -69.312541 
L 327.880598 -69.194734 
L 351.731794 -69.309863 
L 375.58299 -69.301831 
L 399.434187 -69.145647 
L 423.285383 -69.097453 
L 447.136579 -69.096561 
L 470.987775 -69.084958 
L 494.838971 -69.084066 
L 518.690167 -69.028732 
L 542.541364 -69.036765 
L 542.541364 -68.903785 
L 542.541364 -68.903785 
L 518.690167 -68.903785 
L 494.838971 -68.903785 
L 470.987775 -68.903785 
L 447.136579 -68.903785 
L 423.285383 -68.903785 
L 399.434187 -68.903785 
L 375.58299 -68.903785 
L 351.731794 -68.903785 
L 327.880598 -68.903785 
L 304.029402 -68.903785 
L 280.178206 -68.903785 
L 256.32701 -68.903785 
L 232.475813 -68.903785 
L 208.624617 -68.903785 
L 184.773421 -68.903785 
L 160.922225 -68.903785 
L 137.071029 -68.903785 
L 113.219833 -68.903785 
L 89.368636 -68.903785 
z
" style="stroke: #984ea3; stroke-opacity: 0.5"/>
    </defs>
    <g clip-path="url(#pecef4ed50b)">
     <use xlink:href="#m577a81cfc7" x="0" y="360" style="fill: #984ea3; fill-opacity: 0.5; stroke: #984ea3; stroke-opacity: 0.5"/>
    </g>
   </g>
   <g id="PolyCollection_2">
    <defs>
     <path id="m2e6b46aa98" d="M 89.368636 -68.903785 
L 89.368636 -71.438904 
L 113.219833 -87.556387 
L 137.071029 -101.947041 
L 160.922225 -74.660294 
L 184.773421 -79.268475 
L 208.624617 -81.772005 
L 232.475813 -83.757735 
L 256.32701 -127.071535 
L 280.178206 -73.883593 
L 304.029402 -81.718739 
L 327.880598 -78.737667 
L 351.731794 -73.122995 
L 375.58299 -71.052411 
L 399.434187 -71.999442 
L 423.285383 -70.114671 
L 447.136579 -70.369236 
L 470.987775 -75.753499 
L 494.838971 -72.302937 
L 518.690167 -70.159266 
L 542.541364 -70.0261 
L 542.541364 -68.903785 
L 542.541364 -68.903785 
L 518.690167 -68.903785 
L 494.838971 -68.903785 
L 470.987775 -68.903785 
L 447.136579 -68.903785 
L 423.285383 -68.903785 
L 399.434187 -68.903785 
L 375.58299 -68.903785 
L 351.731794 -68.903785 
L 327.880598 -68.903785 
L 304.029402 -68.903785 
L 280.178206 -68.903785 
L 256.32701 -68.903785 
L 232.475813 -68.903785 
L 208.624617 -68.903785 
L 184.773421 -68.903785 
L 160.922225 -68.903785 
L 137.071029 -68.903785 
L 113.219833 -68.903785 
L 89.368636 -68.903785 
z
" style="stroke: #ff7f00; stroke-opacity: 0.5"/>
    </defs>
    <g clip-path="url(#pecef4ed50b)">
     <use xlink:href="#m2e6b46aa98" x="0" y="360" style="fill: #ff7f00; fill-opacity: 0.5; stroke: #ff7f00; stroke-opacity: 0.5"/>
    </g>
   </g>
   <g id="PolyCollection_3">
    <defs>
     <path id="m70f9792aea" d="M 89.368636 -68.903785 
L 89.368636 -69.214947 
L 113.219833 -263.698352 
L 137.071029 -129.123126 
L 160.922225 -77.106483 
L 184.773421 -72.215889 
L 208.624617 -70.39337 
L 232.475813 -69.64767 
L 256.32701 -69.450813 
L 280.178206 -69.312015 
L 304.029402 -69.29115 
L 327.880598 -69.17866 
L 351.731794 -69.153259 
L 375.58299 -69.07887 
L 399.434187 -69.050748 
L 423.285383 -69.039862 
L 447.136579 -68.978173 
L 470.987775 -68.963659 
L 494.838971 -68.955494 
L 518.690167 -68.96638 
L 542.541364 -68.979988 
L 542.541364 -68.903785 
L 542.541364 -68.903785 
L 518.690167 -68.903785 
L 494.838971 -68.903785 
L 470.987775 -68.903785 
L 447.136579 -68.903785 
L 423.285383 -68.903785 
L 399.434187 -68.903785 
L 375.58299 -68.903785 
L 351.731794 -68.903785 
L 327.880598 -68.903785 
L 304.029402 -68.903785 
L 280.178206 -68.903785 
L 256.32701 -68.903785 
L 232.475813 -68.903785 
L 208.624617 -68.903785 
L 184.773421 -68.903785 
L 160.922225 -68.903785 
L 137.071029 -68.903785 
L 113.219833 -68.903785 
L 89.368636 -68.903785 
z
" style="stroke: #377eb8; stroke-opacity: 0.5"/>
    </defs>
    <g clip-path="url(#pecef4ed50b)">
     <use xlink:href="#m70f9792aea" x="0" y="360" style="fill: #377eb8; fill-opacity: 0.5; stroke: #377eb8; stroke-opacity: 0.5"/>
    </g>
   </g>
   <g id="matplotlib.axis_1">
    <g id="xtick_1">
     <g id="line2d_1">
      <defs>
       <path id="m4252be7559" d="M 0 0 
L 0 3.5 
" style="stroke: #000000; stroke-width: 0.8"/>
      </defs>
      <g>
       <use xlink:href="#m4252be7559" x="89.368636" y="303.28" style="stroke: #000000; stroke-width: 0.8"/>
      </g>
     </g>
     <g id="text_1">
      <!-- 1 -->
      <g transform="translate(84.278636 322.4375) scale(0.16 -0.16)">
       <defs>
        <path id="DejaVuSans-31" d="M 794 531 
L 1825 531 
L 1825 4091 
L 703 3866 
L 703 4441 
L 1819 4666 
L 2450 4666 
L 2450 531 
L 3481 531 
L 3481 0 
L 794 0 
L 794 531 
z
" transform="scale(0.015625)"/>
       </defs>
       <use xlink:href="#DejaVuSans-31"/>
      </g>
     </g>
    </g>
    <g id="xtick_2">
     <g id="line2d_2">
      <g>
       <use xlink:href="#m4252be7559" x="113.219833" y="303.28" style="stroke: #000000; stroke-width: 0.8"/>
      </g>
     </g>
     <g id="text_2">
      <!-- 2 -->
      <g transform="translate(108.129833 322.4375) scale(0.16 -0.16)">
       <defs>
        <path id="DejaVuSans-32" d="M 1228 531 
L 3431 531 
L 3431 0 
L 469 0 
L 469 531 
Q 828 903 1448 1529 
Q 2069 2156 2228 2338 
Q 2531 2678 2651 2914 
Q 2772 3150 2772 3378 
Q 2772 3750 2511 3984 
Q 2250 4219 1831 4219 
Q 1534 4219 1204 4116 
Q 875 4013 500 3803 
L 500 4441 
Q 881 4594 1212 4672 
Q 1544 4750 1819 4750 
Q 2544 4750 2975 4387 
Q 3406 4025 3406 3419 
Q 3406 3131 3298 2873 
Q 3191 2616 2906 2266 
Q 2828 2175 2409 1742 
Q 1991 1309 1228 531 
z
" transform="scale(0.015625)"/>
       </defs>
       <use xlink:href="#DejaVuSans-32"/>
      </g>
     </g>
    </g>
    <g id="xtick_3">
     <g id="line2d_3">
      <g>
       <use xlink:href="#m4252be7559" x="137.071029" y="303.28" style="stroke: #000000; stroke-width: 0.8"/>
      </g>
     </g>
     <g id="text_3">
      <!-- 3 -->
      <g transform="translate(131.981029 322.4375) scale(0.16 -0.16)">
       <defs>
        <path id="DejaVuSans-33" d="M 2597 2516 
Q 3050 2419 3304 2112 
Q 3559 1806 3559 1356 
Q 3559 666 3084 287 
Q 2609 -91 1734 -91 
Q 1441 -91 1130 -33 
Q 819 25 488 141 
L 488 750 
Q 750 597 1062 519 
Q 1375 441 1716 441 
Q 2309 441 2620 675 
Q 2931 909 2931 1356 
Q 2931 1769 2642 2001 
Q 2353 2234 1838 2234 
L 1294 2234 
L 1294 2753 
L 1863 2753 
Q 2328 2753 2575 2939 
Q 2822 3125 2822 3475 
Q 2822 3834 2567 4026 
Q 2313 4219 1838 4219 
Q 1578 4219 1281 4162 
Q 984 4106 628 3988 
L 628 4550 
Q 988 4650 1302 4700 
Q 1616 4750 1894 4750 
Q 2613 4750 3031 4423 
Q 3450 4097 3450 3541 
Q 3450 3153 3228 2886 
Q 3006 2619 2597 2516 
z
" transform="scale(0.015625)"/>
       </defs>
       <use xlink:href="#DejaVuSans-33"/>
      </g>
     </g>
    </g>
    <g id="xtick_4">
     <g id="line2d_4">
      <g>
       <use xlink:href="#m4252be7559" x="160.922225" y="303.28" style="stroke: #000000; stroke-width: 0.8"/>
      </g>
     </g>
     <g id="text_4">
      <!-- 4 -->
      <g transform="translate(155.832225 322.4375) scale(0.16 -0.16)">
       <defs>
        <path id="DejaVuSans-34" d="M 2419 4116 
L 825 1625 
L 2419 1625 
L 2419 4116 
z
M 2253 4666 
L 3047 4666 
L 3047 1625 
L 3713 1625 
L 3713 1100 
L 3047 1100 
L 3047 0 
L 2419 0 
L 2419 1100 
L 313 1100 
L 313 1709 
L 2253 4666 
z
" transform="scale(0.015625)"/>
       </defs>
       <use xlink:href="#DejaVuSans-34"/>
      </g>
     </g>
    </g>
    <g id="xtick_5">
     <g id="line2d_5">
      <g>
       <use xlink:href="#m4252be7559" x="184.773421" y="303.28" style="stroke: #000000; stroke-width: 0.8"/>
      </g>
     </g>
     <g id="text_5">
      <!-- 5 -->
      <g transform="translate(179.683421 322.4375) scale(0.16 -0.16)">
       <defs>
        <path id="DejaVuSans-35" d="M 691 4666 
L 3169 4666 
L 3169 4134 
L 1269 4134 
L 1269 2991 
Q 1406 3038 1543 3061 
Q 1681 3084 1819 3084 
Q 2600 3084 3056 2656 
Q 3513 2228 3513 1497 
Q 3513 744 3044 326 
Q 2575 -91 1722 -91 
Q 1428 -91 1123 -41 
Q 819 9 494 109 
L 494 744 
Q 775 591 1075 516 
Q 1375 441 1709 441 
Q 2250 441 2565 725 
Q 2881 1009 2881 1497 
Q 2881 1984 2565 2268 
Q 2250 2553 1709 2553 
Q 1456 2553 1204 2497 
Q 953 2441 691 2322 
L 691 4666 
z
" transform="scale(0.015625)"/>
       </defs>
       <use xlink:href="#DejaVuSans-35"/>
      </g>
     </g>
    </g>
    <g id="xtick_6">
     <g id="line2d_6">
      <g>
       <use xlink:href="#m4252be7559" x="208.624617" y="303.28" style="stroke: #000000; stroke-width: 0.8"/>
      </g>
     </g>
     <g id="text_6">
      <!-- 6 -->
      <g transform="translate(203.534617 322.4375) scale(0.16 -0.16)">
       <defs>
        <path id="DejaVuSans-36" d="M 2113 2584 
Q 1688 2584 1439 2293 
Q 1191 2003 1191 1497 
Q 1191 994 1439 701 
Q 1688 409 2113 409 
Q 2538 409 2786 701 
Q 3034 994 3034 1497 
Q 3034 2003 2786 2293 
Q 2538 2584 2113 2584 
z
M 3366 4563 
L 3366 3988 
Q 3128 4100 2886 4159 
Q 2644 4219 2406 4219 
Q 1781 4219 1451 3797 
Q 1122 3375 1075 2522 
Q 1259 2794 1537 2939 
Q 1816 3084 2150 3084 
Q 2853 3084 3261 2657 
Q 3669 2231 3669 1497 
Q 3669 778 3244 343 
Q 2819 -91 2113 -91 
Q 1303 -91 875 529 
Q 447 1150 447 2328 
Q 447 3434 972 4092 
Q 1497 4750 2381 4750 
Q 2619 4750 2861 4703 
Q 3103 4656 3366 4563 
z
" transform="scale(0.015625)"/>
       </defs>
       <use xlink:href="#DejaVuSans-36"/>
      </g>
     </g>
    </g>
    <g id="xtick_7">
     <g id="line2d_7">
      <g>
       <use xlink:href="#m4252be7559" x="232.475813" y="303.28" style="stroke: #000000; stroke-width: 0.8"/>
      </g>
     </g>
     <g id="text_7">
      <!-- 7 -->
      <g transform="translate(227.385813 322.4375) scale(0.16 -0.16)">
       <defs>
        <path id="DejaVuSans-37" d="M 525 4666 
L 3525 4666 
L 3525 4397 
L 1831 0 
L 1172 0 
L 2766 4134 
L 525 4134 
L 525 4666 
z
" transform="scale(0.015625)"/>
       </defs>
       <use xlink:href="#DejaVuSans-37"/>
      </g>
     </g>
    </g>
    <g id="xtick_8">
     <g id="line2d_8">
      <g>
       <use xlink:href="#m4252be7559" x="256.32701" y="303.28" style="stroke: #000000; stroke-width: 0.8"/>
      </g>
     </g>
     <g id="text_8">
      <!-- 8 -->
      <g transform="translate(251.23701 322.4375) scale(0.16 -0.16)">
       <defs>
        <path id="DejaVuSans-38" d="M 2034 2216 
Q 1584 2216 1326 1975 
Q 1069 1734 1069 1313 
Q 1069 891 1326 650 
Q 1584 409 2034 409 
Q 2484 409 2743 651 
Q 3003 894 3003 1313 
Q 3003 1734 2745 1975 
Q 2488 2216 2034 2216 
z
M 1403 2484 
Q 997 2584 770 2862 
Q 544 3141 544 3541 
Q 544 4100 942 4425 
Q 1341 4750 2034 4750 
Q 2731 4750 3128 4425 
Q 3525 4100 3525 3541 
Q 3525 3141 3298 2862 
Q 3072 2584 2669 2484 
Q 3125 2378 3379 2068 
Q 3634 1759 3634 1313 
Q 3634 634 3220 271 
Q 2806 -91 2034 -91 
Q 1263 -91 848 271 
Q 434 634 434 1313 
Q 434 1759 690 2068 
Q 947 2378 1403 2484 
z
M 1172 3481 
Q 1172 3119 1398 2916 
Q 1625 2713 2034 2713 
Q 2441 2713 2670 2916 
Q 2900 3119 2900 3481 
Q 2900 3844 2670 4047 
Q 2441 4250 2034 4250 
Q 1625 4250 1398 4047 
Q 1172 3844 1172 3481 
z
" transform="scale(0.015625)"/>
       </defs>
       <use xlink:href="#DejaVuSans-38"/>
      </g>
     </g>
    </g>
    <g id="xtick_9">
     <g id="line2d_9">
      <g>
       <use xlink:href="#m4252be7559" x="280.178206" y="303.28" style="stroke: #000000; stroke-width: 0.8"/>
      </g>
     </g>
     <g id="text_9">
      <!-- 9 -->
      <g transform="translate(275.088206 322.4375) scale(0.16 -0.16)">
       <defs>
        <path id="DejaVuSans-39" d="M 703 97 
L 703 672 
Q 941 559 1184 500 
Q 1428 441 1663 441 
Q 2288 441 2617 861 
Q 2947 1281 2994 2138 
Q 2813 1869 2534 1725 
Q 2256 1581 1919 1581 
Q 1219 1581 811 2004 
Q 403 2428 403 3163 
Q 403 3881 828 4315 
Q 1253 4750 1959 4750 
Q 2769 4750 3195 4129 
Q 3622 3509 3622 2328 
Q 3622 1225 3098 567 
Q 2575 -91 1691 -91 
Q 1453 -91 1209 -44 
Q 966 3 703 97 
z
M 1959 2075 
Q 2384 2075 2632 2365 
Q 2881 2656 2881 3163 
Q 2881 3666 2632 3958 
Q 2384 4250 1959 4250 
Q 1534 4250 1286 3958 
Q 1038 3666 1038 3163 
Q 1038 2656 1286 2365 
Q 1534 2075 1959 2075 
z
" transform="scale(0.015625)"/>
       </defs>
       <use xlink:href="#DejaVuSans-39"/>
      </g>
     </g>
    </g>
    <g id="xtick_10">
     <g id="line2d_10">
      <g>
       <use xlink:href="#m4252be7559" x="304.029402" y="303.28" style="stroke: #000000; stroke-width: 0.8"/>
      </g>
     </g>
     <g id="text_10">
      <!-- 10 -->
      <g transform="translate(293.849402 322.4375) scale(0.16 -0.16)">
       <defs>
        <path id="DejaVuSans-30" d="M 2034 4250 
Q 1547 4250 1301 3770 
Q 1056 3291 1056 2328 
Q 1056 1369 1301 889 
Q 1547 409 2034 409 
Q 2525 409 2770 889 
Q 3016 1369 3016 2328 
Q 3016 3291 2770 3770 
Q 2525 4250 2034 4250 
z
M 2034 4750 
Q 2819 4750 3233 4129 
Q 3647 3509 3647 2328 
Q 3647 1150 3233 529 
Q 2819 -91 2034 -91 
Q 1250 -91 836 529 
Q 422 1150 422 2328 
Q 422 3509 836 4129 
Q 1250 4750 2034 4750 
z
" transform="scale(0.015625)"/>
       </defs>
       <use xlink:href="#DejaVuSans-31"/>
       <use xlink:href="#DejaVuSans-30" x="63.623047"/>
      </g>
     </g>
    </g>
    <g id="xtick_11">
     <g id="line2d_11">
      <g>
       <use xlink:href="#m4252be7559" x="327.880598" y="303.28" style="stroke: #000000; stroke-width: 0.8"/>
      </g>
     </g>
     <g id="text_11">
      <!-- 11 -->
      <g transform="translate(317.700598 322.4375) scale(0.16 -0.16)">
       <use xlink:href="#DejaVuSans-31"/>
       <use xlink:href="#DejaVuSans-31" x="63.623047"/>
      </g>
     </g>
    </g>
    <g id="xtick_12">
     <g id="line2d_12">
      <g>
       <use xlink:href="#m4252be7559" x="351.731794" y="303.28" style="stroke: #000000; stroke-width: 0.8"/>
      </g>
     </g>
     <g id="text_12">
      <!-- 12 -->
      <g transform="translate(341.551794 322.4375) scale(0.16 -0.16)">
       <use xlink:href="#DejaVuSans-31"/>
       <use xlink:href="#DejaVuSans-32" x="63.623047"/>
      </g>
     </g>
    </g>
    <g id="xtick_13">
     <g id="line2d_13">
      <g>
       <use xlink:href="#m4252be7559" x="375.58299" y="303.28" style="stroke: #000000; stroke-width: 0.8"/>
      </g>
     </g>
     <g id="text_13">
      <!-- 13 -->
      <g transform="translate(365.40299 322.4375) scale(0.16 -0.16)">
       <use xlink:href="#DejaVuSans-31"/>
       <use xlink:href="#DejaVuSans-33" x="63.623047"/>
      </g>
     </g>
    </g>
    <g id="xtick_14">
     <g id="line2d_14">
      <g>
       <use xlink:href="#m4252be7559" x="399.434187" y="303.28" style="stroke: #000000; stroke-width: 0.8"/>
      </g>
     </g>
     <g id="text_14">
      <!-- 14 -->
      <g transform="translate(389.254187 322.4375) scale(0.16 -0.16)">
       <use xlink:href="#DejaVuSans-31"/>
       <use xlink:href="#DejaVuSans-34" x="63.623047"/>
      </g>
     </g>
    </g>
    <g id="xtick_15">
     <g id="line2d_15">
      <g>
       <use xlink:href="#m4252be7559" x="423.285383" y="303.28" style="stroke: #000000; stroke-width: 0.8"/>
      </g>
     </g>
     <g id="text_15">
      <!-- 15 -->
      <g transform="translate(413.105383 322.4375) scale(0.16 -0.16)">
       <use xlink:href="#DejaVuSans-31"/>
       <use xlink:href="#DejaVuSans-35" x="63.623047"/>
      </g>
     </g>
    </g>
    <g id="xtick_16">
     <g id="line2d_16">
      <g>
       <use xlink:href="#m4252be7559" x="447.136579" y="303.28" style="stroke: #000000; stroke-width: 0.8"/>
      </g>
     </g>
     <g id="text_16">
      <!-- 16 -->
      <g transform="translate(436.956579 322.4375) scale(0.16 -0.16)">
       <use xlink:href="#DejaVuSans-31"/>
       <use xlink:href="#DejaVuSans-36" x="63.623047"/>
      </g>
     </g>
    </g>
    <g id="xtick_17">
     <g id="line2d_17">
      <g>
       <use xlink:href="#m4252be7559" x="470.987775" y="303.28" style="stroke: #000000; stroke-width: 0.8"/>
      </g>
     </g>
     <g id="text_17">
      <!-- 17 -->
      <g transform="translate(460.807775 322.4375) scale(0.16 -0.16)">
       <use xlink:href="#DejaVuSans-31"/>
       <use xlink:href="#DejaVuSans-37" x="63.623047"/>
      </g>
     </g>
    </g>
    <g id="xtick_18">
     <g id="line2d_18">
      <g>
       <use xlink:href="#m4252be7559" x="494.838971" y="303.28" style="stroke: #000000; stroke-width: 0.8"/>
      </g>
     </g>
     <g id="text_18">
      <!-- 18 -->
      <g transform="translate(484.658971 322.4375) scale(0.16 -0.16)">
       <use xlink:href="#DejaVuSans-31"/>
       <use xlink:href="#DejaVuSans-38" x="63.623047"/>
      </g>
     </g>
    </g>
    <g id="xtick_19">
     <g id="line2d_19">
      <g>
       <use xlink:href="#m4252be7559" x="518.690167" y="303.28" style="stroke: #000000; stroke-width: 0.8"/>
      </g>
     </g>
     <g id="text_19">
      <!-- 19 -->
      <g transform="translate(508.510167 322.4375) scale(0.16 -0.16)">
       <use xlink:href="#DejaVuSans-31"/>
       <use xlink:href="#DejaVuSans-39" x="63.623047"/>
      </g>
     </g>
    </g>
    <g id="xtick_20">
     <g id="line2d_20">
      <g>
       <use xlink:href="#m4252be7559" x="542.541364" y="303.28" style="stroke: #000000; stroke-width: 0.8"/>
      </g>
     </g>
     <g id="text_20">
      <!-- 20 -->
      <g transform="translate(532.361364 322.4375) scale(0.16 -0.16)">
       <use xlink:href="#DejaVuSans-32"/>
       <use xlink:href="#DejaVuSans-30" x="63.623047"/>
      </g>
     </g>
    </g>
    <g id="text_21">
     <!-- Number of Instantiation Calls -->
     <g transform="translate(169.869062 344.961875) scale(0.2 -0.2)">
      <defs>
       <path id="DejaVuSans-4e" d="M 628 4666 
L 1478 4666 
L 3547 763 
L 3547 4666 
L 4159 4666 
L 4159 0 
L 3309 0 
L 1241 3903 
L 1241 0 
L 628 0 
L 628 4666 
z
" transform="scale(0.015625)"/>
       <path id="DejaVuSans-75" d="M 544 1381 
L 544 3500 
L 1119 3500 
L 1119 1403 
Q 1119 906 1312 657 
Q 1506 409 1894 409 
Q 2359 409 2629 706 
Q 2900 1003 2900 1516 
L 2900 3500 
L 3475 3500 
L 3475 0 
L 2900 0 
L 2900 538 
Q 2691 219 2414 64 
Q 2138 -91 1772 -91 
Q 1169 -91 856 284 
Q 544 659 544 1381 
z
M 1991 3584 
L 1991 3584 
z
" transform="scale(0.015625)"/>
       <path id="DejaVuSans-6d" d="M 3328 2828 
Q 3544 3216 3844 3400 
Q 4144 3584 4550 3584 
Q 5097 3584 5394 3201 
Q 5691 2819 5691 2113 
L 5691 0 
L 5113 0 
L 5113 2094 
Q 5113 2597 4934 2840 
Q 4756 3084 4391 3084 
Q 3944 3084 3684 2787 
Q 3425 2491 3425 1978 
L 3425 0 
L 2847 0 
L 2847 2094 
Q 2847 2600 2669 2842 
Q 2491 3084 2119 3084 
Q 1678 3084 1418 2786 
Q 1159 2488 1159 1978 
L 1159 0 
L 581 0 
L 581 3500 
L 1159 3500 
L 1159 2956 
Q 1356 3278 1631 3431 
Q 1906 3584 2284 3584 
Q 2666 3584 2933 3390 
Q 3200 3197 3328 2828 
z
" transform="scale(0.015625)"/>
       <path id="DejaVuSans-62" d="M 3116 1747 
Q 3116 2381 2855 2742 
Q 2594 3103 2138 3103 
Q 1681 3103 1420 2742 
Q 1159 2381 1159 1747 
Q 1159 1113 1420 752 
Q 1681 391 2138 391 
Q 2594 391 2855 752 
Q 3116 1113 3116 1747 
z
M 1159 2969 
Q 1341 3281 1617 3432 
Q 1894 3584 2278 3584 
Q 2916 3584 3314 3078 
Q 3713 2572 3713 1747 
Q 3713 922 3314 415 
Q 2916 -91 2278 -91 
Q 1894 -91 1617 61 
Q 1341 213 1159 525 
L 1159 0 
L 581 0 
L 581 4863 
L 1159 4863 
L 1159 2969 
z
" transform="scale(0.015625)"/>
       <path id="DejaVuSans-65" d="M 3597 1894 
L 3597 1613 
L 953 1613 
Q 991 1019 1311 708 
Q 1631 397 2203 397 
Q 2534 397 2845 478 
Q 3156 559 3463 722 
L 3463 178 
Q 3153 47 2828 -22 
Q 2503 -91 2169 -91 
Q 1331 -91 842 396 
Q 353 884 353 1716 
Q 353 2575 817 3079 
Q 1281 3584 2069 3584 
Q 2775 3584 3186 3129 
Q 3597 2675 3597 1894 
z
M 3022 2063 
Q 3016 2534 2758 2815 
Q 2500 3097 2075 3097 
Q 1594 3097 1305 2825 
Q 1016 2553 972 2059 
L 3022 2063 
z
" transform="scale(0.015625)"/>
       <path id="DejaVuSans-72" d="M 2631 2963 
Q 2534 3019 2420 3045 
Q 2306 3072 2169 3072 
Q 1681 3072 1420 2755 
Q 1159 2438 1159 1844 
L 1159 0 
L 581 0 
L 581 3500 
L 1159 3500 
L 1159 2956 
Q 1341 3275 1631 3429 
Q 1922 3584 2338 3584 
Q 2397 3584 2469 3576 
Q 2541 3569 2628 3553 
L 2631 2963 
z
" transform="scale(0.015625)"/>
       <path id="DejaVuSans-20" transform="scale(0.015625)"/>
       <path id="DejaVuSans-6f" d="M 1959 3097 
Q 1497 3097 1228 2736 
Q 959 2375 959 1747 
Q 959 1119 1226 758 
Q 1494 397 1959 397 
Q 2419 397 2687 759 
Q 2956 1122 2956 1747 
Q 2956 2369 2687 2733 
Q 2419 3097 1959 3097 
z
M 1959 3584 
Q 2709 3584 3137 3096 
Q 3566 2609 3566 1747 
Q 3566 888 3137 398 
Q 2709 -91 1959 -91 
Q 1206 -91 779 398 
Q 353 888 353 1747 
Q 353 2609 779 3096 
Q 1206 3584 1959 3584 
z
" transform="scale(0.015625)"/>
       <path id="DejaVuSans-66" d="M 2375 4863 
L 2375 4384 
L 1825 4384 
Q 1516 4384 1395 4259 
Q 1275 4134 1275 3809 
L 1275 3500 
L 2222 3500 
L 2222 3053 
L 1275 3053 
L 1275 0 
L 697 0 
L 697 3053 
L 147 3053 
L 147 3500 
L 697 3500 
L 697 3744 
Q 697 4328 969 4595 
Q 1241 4863 1831 4863 
L 2375 4863 
z
" transform="scale(0.015625)"/>
       <path id="DejaVuSans-49" d="M 628 4666 
L 1259 4666 
L 1259 0 
L 628 0 
L 628 4666 
z
" transform="scale(0.015625)"/>
       <path id="DejaVuSans-6e" d="M 3513 2113 
L 3513 0 
L 2938 0 
L 2938 2094 
Q 2938 2591 2744 2837 
Q 2550 3084 2163 3084 
Q 1697 3084 1428 2787 
Q 1159 2491 1159 1978 
L 1159 0 
L 581 0 
L 581 3500 
L 1159 3500 
L 1159 2956 
Q 1366 3272 1645 3428 
Q 1925 3584 2291 3584 
Q 2894 3584 3203 3211 
Q 3513 2838 3513 2113 
z
" transform="scale(0.015625)"/>
       <path id="DejaVuSans-73" d="M 2834 3397 
L 2834 2853 
Q 2591 2978 2328 3040 
Q 2066 3103 1784 3103 
Q 1356 3103 1142 2972 
Q 928 2841 928 2578 
Q 928 2378 1081 2264 
Q 1234 2150 1697 2047 
L 1894 2003 
Q 2506 1872 2764 1633 
Q 3022 1394 3022 966 
Q 3022 478 2636 193 
Q 2250 -91 1575 -91 
Q 1294 -91 989 -36 
Q 684 19 347 128 
L 347 722 
Q 666 556 975 473 
Q 1284 391 1588 391 
Q 1994 391 2212 530 
Q 2431 669 2431 922 
Q 2431 1156 2273 1281 
Q 2116 1406 1581 1522 
L 1381 1569 
Q 847 1681 609 1914 
Q 372 2147 372 2553 
Q 372 3047 722 3315 
Q 1072 3584 1716 3584 
Q 2034 3584 2315 3537 
Q 2597 3491 2834 3397 
z
" transform="scale(0.015625)"/>
       <path id="DejaVuSans-74" d="M 1172 4494 
L 1172 3500 
L 2356 3500 
L 2356 3053 
L 1172 3053 
L 1172 1153 
Q 1172 725 1289 603 
Q 1406 481 1766 481 
L 2356 481 
L 2356 0 
L 1766 0 
Q 1100 0 847 248 
Q 594 497 594 1153 
L 594 3053 
L 172 3053 
L 172 3500 
L 594 3500 
L 594 4494 
L 1172 4494 
z
" transform="scale(0.015625)"/>
       <path id="DejaVuSans-61" d="M 2194 1759 
Q 1497 1759 1228 1600 
Q 959 1441 959 1056 
Q 959 750 1161 570 
Q 1363 391 1709 391 
Q 2188 391 2477 730 
Q 2766 1069 2766 1631 
L 2766 1759 
L 2194 1759 
z
M 3341 1997 
L 3341 0 
L 2766 0 
L 2766 531 
Q 2569 213 2275 61 
Q 1981 -91 1556 -91 
Q 1019 -91 701 211 
Q 384 513 384 1019 
Q 384 1609 779 1909 
Q 1175 2209 1959 2209 
L 2766 2209 
L 2766 2266 
Q 2766 2663 2505 2880 
Q 2244 3097 1772 3097 
Q 1472 3097 1187 3025 
Q 903 2953 641 2809 
L 641 3341 
Q 956 3463 1253 3523 
Q 1550 3584 1831 3584 
Q 2591 3584 2966 3190 
Q 3341 2797 3341 1997 
z
" transform="scale(0.015625)"/>
       <path id="DejaVuSans-69" d="M 603 3500 
L 1178 3500 
L 1178 0 
L 603 0 
L 603 3500 
z
M 603 4863 
L 1178 4863 
L 1178 4134 
L 603 4134 
L 603 4863 
z
" transform="scale(0.015625)"/>
       <path id="DejaVuSans-43" d="M 4122 4306 
L 4122 3641 
Q 3803 3938 3442 4084 
Q 3081 4231 2675 4231 
Q 1875 4231 1450 3742 
Q 1025 3253 1025 2328 
Q 1025 1406 1450 917 
Q 1875 428 2675 428 
Q 3081 428 3442 575 
Q 3803 722 4122 1019 
L 4122 359 
Q 3791 134 3420 21 
Q 3050 -91 2638 -91 
Q 1578 -91 968 557 
Q 359 1206 359 2328 
Q 359 3453 968 4101 
Q 1578 4750 2638 4750 
Q 3056 4750 3426 4639 
Q 3797 4528 4122 4306 
z
" transform="scale(0.015625)"/>
       <path id="DejaVuSans-6c" d="M 603 4863 
L 1178 4863 
L 1178 0 
L 603 0 
L 603 4863 
z
" transform="scale(0.015625)"/>
      </defs>
      <use xlink:href="#DejaVuSans-4e"/>
      <use xlink:href="#DejaVuSans-75" x="74.804688"/>
      <use xlink:href="#DejaVuSans-6d" x="138.183594"/>
      <use xlink:href="#DejaVuSans-62" x="235.595703"/>
      <use xlink:href="#DejaVuSans-65" x="299.072266"/>
      <use xlink:href="#DejaVuSans-72" x="360.595703"/>
      <use xlink:href="#DejaVuSans-20" x="401.708984"/>
      <use xlink:href="#DejaVuSans-6f" x="433.496094"/>
      <use xlink:href="#DejaVuSans-66" x="494.677734"/>
      <use xlink:href="#DejaVuSans-20" x="529.882812"/>
      <use xlink:href="#DejaVuSans-49" x="561.669922"/>
      <use xlink:href="#DejaVuSans-6e" x="591.162109"/>
      <use xlink:href="#DejaVuSans-73" x="654.541016"/>
      <use xlink:href="#DejaVuSans-74" x="706.640625"/>
      <use xlink:href="#DejaVuSans-61" x="745.849609"/>
      <use xlink:href="#DejaVuSans-6e" x="807.128906"/>
      <use xlink:href="#DejaVuSans-74" x="870.507812"/>
      <use xlink:href="#DejaVuSans-69" x="909.716797"/>
      <use xlink:href="#DejaVuSans-61" x="937.5"/>
      <use xlink:href="#DejaVuSans-74" x="998.779297"/>
      <use xlink:href="#DejaVuSans-69" x="1037.988281"/>
      <use xlink:href="#DejaVuSans-6f" x="1065.771484"/>
      <use xlink:href="#DejaVuSans-6e" x="1126.953125"/>
      <use xlink:href="#DejaVuSans-20" x="1190.332031"/>
      <use xlink:href="#DejaVuSans-43" x="1222.119141"/>
      <use xlink:href="#DejaVuSans-61" x="1291.943359"/>
      <use xlink:href="#DejaVuSans-6c" x="1353.222656"/>
      <use xlink:href="#DejaVuSans-6c" x="1381.005859"/>
      <use xlink:href="#DejaVuSans-73" x="1408.789062"/>
     </g>
    </g>
   </g>
   <g id="matplotlib.axis_2">
    <g id="ytick_1">
     <g id="line2d_21">
      <defs>
       <path id="m07251b3445" d="M 0 0 
L -3.5 0 
" style="stroke: #000000; stroke-width: 0.8"/>
      </defs>
      <g>
       <use xlink:href="#m07251b3445" x="66.71" y="291.096215" style="stroke: #000000; stroke-width: 0.8"/>
      </g>
     </g>
     <g id="text_22">
      <!-- 0.0 -->
      <g transform="translate(34.265 297.174965) scale(0.16 -0.16)">
       <defs>
        <path id="DejaVuSans-2e" d="M 684 794 
L 1344 794 
L 1344 0 
L 684 0 
L 684 794 
z
" transform="scale(0.015625)"/>
       </defs>
       <use xlink:href="#DejaVuSans-30"/>
       <use xlink:href="#DejaVuSans-2e" x="63.623047"/>
       <use xlink:href="#DejaVuSans-30" x="95.410156"/>
      </g>
     </g>
    </g>
    <g id="ytick_2">
     <g id="line2d_22">
      <g>
       <use xlink:href="#m07251b3445" x="66.71" y="236.260972" style="stroke: #000000; stroke-width: 0.8"/>
      </g>
     </g>
     <g id="text_23">
      <!-- 0.2 -->
      <g transform="translate(34.265 242.339722) scale(0.16 -0.16)">
       <use xlink:href="#DejaVuSans-30"/>
       <use xlink:href="#DejaVuSans-2e" x="63.623047"/>
       <use xlink:href="#DejaVuSans-32" x="95.410156"/>
      </g>
     </g>
    </g>
    <g id="ytick_3">
     <g id="line2d_23">
      <g>
       <use xlink:href="#m07251b3445" x="66.71" y="181.425729" style="stroke: #000000; stroke-width: 0.8"/>
      </g>
     </g>
     <g id="text_24">
      <!-- 0.4 -->
      <g transform="translate(34.265 187.504479) scale(0.16 -0.16)">
       <use xlink:href="#DejaVuSans-30"/>
       <use xlink:href="#DejaVuSans-2e" x="63.623047"/>
       <use xlink:href="#DejaVuSans-34" x="95.410156"/>
      </g>
     </g>
    </g>
    <g id="ytick_4">
     <g id="line2d_24">
      <g>
       <use xlink:href="#m07251b3445" x="66.71" y="126.590486" style="stroke: #000000; stroke-width: 0.8"/>
      </g>
     </g>
     <g id="text_25">
      <!-- 0.6 -->
      <g transform="translate(34.265 132.669236) scale(0.16 -0.16)">
       <use xlink:href="#DejaVuSans-30"/>
       <use xlink:href="#DejaVuSans-2e" x="63.623047"/>
       <use xlink:href="#DejaVuSans-36" x="95.410156"/>
      </g>
     </g>
    </g>
    <g id="ytick_5">
     <g id="line2d_25">
      <g>
       <use xlink:href="#m07251b3445" x="66.71" y="71.755243" style="stroke: #000000; stroke-width: 0.8"/>
      </g>
     </g>
     <g id="text_26">
      <!-- 0.8 -->
      <g transform="translate(34.265 77.833993) scale(0.16 -0.16)">
       <use xlink:href="#DejaVuSans-30"/>
       <use xlink:href="#DejaVuSans-2e" x="63.623047"/>
       <use xlink:href="#DejaVuSans-38" x="95.410156"/>
      </g>
     </g>
    </g>
    <g id="ytick_6">
     <g id="line2d_26">
      <g>
       <use xlink:href="#m07251b3445" x="66.71" y="16.92" style="stroke: #000000; stroke-width: 0.8"/>
      </g>
     </g>
     <g id="text_27">
      <!-- 1.0 -->
      <g transform="translate(34.265 22.99875) scale(0.16 -0.16)">
       <use xlink:href="#DejaVuSans-31"/>
       <use xlink:href="#DejaVuSans-2e" x="63.623047"/>
       <use xlink:href="#DejaVuSans-30" x="95.410156"/>
      </g>
     </g>
    </g>
    <g id="text_28">
     <!-- Frequency -->
     <g transform="translate(26.105625 211.759375) rotate(-90) scale(0.2 -0.2)">
      <defs>
       <path id="DejaVuSans-46" d="M 628 4666 
L 3309 4666 
L 3309 4134 
L 1259 4134 
L 1259 2759 
L 3109 2759 
L 3109 2228 
L 1259 2228 
L 1259 0 
L 628 0 
L 628 4666 
z
" transform="scale(0.015625)"/>
       <path id="DejaVuSans-71" d="M 947 1747 
Q 947 1113 1208 752 
Q 1469 391 1925 391 
Q 2381 391 2643 752 
Q 2906 1113 2906 1747 
Q 2906 2381 2643 2742 
Q 2381 3103 1925 3103 
Q 1469 3103 1208 2742 
Q 947 2381 947 1747 
z
M 2906 525 
Q 2725 213 2448 61 
Q 2172 -91 1784 -91 
Q 1150 -91 751 415 
Q 353 922 353 1747 
Q 353 2572 751 3078 
Q 1150 3584 1784 3584 
Q 2172 3584 2448 3432 
Q 2725 3281 2906 2969 
L 2906 3500 
L 3481 3500 
L 3481 -1331 
L 2906 -1331 
L 2906 525 
z
" transform="scale(0.015625)"/>
       <path id="DejaVuSans-63" d="M 3122 3366 
L 3122 2828 
Q 2878 2963 2633 3030 
Q 2388 3097 2138 3097 
Q 1578 3097 1268 2742 
Q 959 2388 959 1747 
Q 959 1106 1268 751 
Q 1578 397 2138 397 
Q 2388 397 2633 464 
Q 2878 531 3122 666 
L 3122 134 
Q 2881 22 2623 -34 
Q 2366 -91 2075 -91 
Q 1284 -91 818 406 
Q 353 903 353 1747 
Q 353 2603 823 3093 
Q 1294 3584 2113 3584 
Q 2378 3584 2631 3529 
Q 2884 3475 3122 3366 
z
" transform="scale(0.015625)"/>
       <path id="DejaVuSans-79" d="M 2059 -325 
Q 1816 -950 1584 -1140 
Q 1353 -1331 966 -1331 
L 506 -1331 
L 506 -850 
L 844 -850 
Q 1081 -850 1212 -737 
Q 1344 -625 1503 -206 
L 1606 56 
L 191 3500 
L 800 3500 
L 1894 763 
L 2988 3500 
L 3597 3500 
L 2059 -325 
z
" transform="scale(0.015625)"/>
      </defs>
      <use xlink:href="#DejaVuSans-46"/>
      <use xlink:href="#DejaVuSans-72" x="50.269531"/>
      <use xlink:href="#DejaVuSans-65" x="89.132812"/>
      <use xlink:href="#DejaVuSans-71" x="150.65625"/>
      <use xlink:href="#DejaVuSans-75" x="214.132812"/>
      <use xlink:href="#DejaVuSans-65" x="277.511719"/>
      <use xlink:href="#DejaVuSans-6e" x="339.035156"/>
      <use xlink:href="#DejaVuSans-63" x="402.414062"/>
      <use xlink:href="#DejaVuSans-79" x="457.394531"/>
     </g>
    </g>
   </g>
   <g id="line2d_27">
    <path d="M 89.368636 47.420516 
L 113.219833 281.250372 
L 137.071029 287.553961 
L 160.922225 288.50356 
L 184.773421 289.530805 
L 208.624617 289.921711 
L 232.475813 290.037733 
L 256.32701 290.392048 
L 280.178206 290.560727 
L 304.029402 290.687459 
L 327.880598 290.805266 
L 351.731794 290.690137 
L 375.58299 290.698169 
L 399.434187 290.854353 
L 423.285383 290.902547 
L 447.136579 290.903439 
L 470.987775 290.915042 
L 494.838971 290.915934 
L 518.690167 290.971268 
L 542.541364 290.963235 
" clip-path="url(#pecef4ed50b)" style="fill: none; stroke: #984ea3; stroke-width: 1.5; stroke-linecap: square"/>
    <defs>
     <path id="m00d4254796" d="M 0 3 
C 0.795609 3 1.55874 2.683901 2.12132 2.12132 
C 2.683901 1.55874 3 0.795609 3 0 
C 3 -0.795609 2.683901 -1.55874 2.12132 -2.12132 
C 1.55874 -2.683901 0.795609 -3 0 -3 
C -0.795609 -3 -1.55874 -2.683901 -2.12132 -2.12132 
C -2.683901 -1.55874 -3 -0.795609 -3 0 
C -3 0.795609 -2.683901 1.55874 -2.12132 2.12132 
C -1.55874 2.683901 -0.795609 3 0 3 
z
" style="stroke: #984ea3"/>
    </defs>
    <g clip-path="url(#pecef4ed50b)">
     <use xlink:href="#m00d4254796" x="89.368636" y="47.420516" style="fill: #984ea3; stroke: #984ea3"/>
     <use xlink:href="#m00d4254796" x="113.219833" y="281.250372" style="fill: #984ea3; stroke: #984ea3"/>
     <use xlink:href="#m00d4254796" x="137.071029" y="287.553961" style="fill: #984ea3; stroke: #984ea3"/>
     <use xlink:href="#m00d4254796" x="160.922225" y="288.50356" style="fill: #984ea3; stroke: #984ea3"/>
     <use xlink:href="#m00d4254796" x="184.773421" y="289.530805" style="fill: #984ea3; stroke: #984ea3"/>
     <use xlink:href="#m00d4254796" x="208.624617" y="289.921711" style="fill: #984ea3; stroke: #984ea3"/>
     <use xlink:href="#m00d4254796" x="232.475813" y="290.037733" style="fill: #984ea3; stroke: #984ea3"/>
     <use xlink:href="#m00d4254796" x="256.32701" y="290.392048" style="fill: #984ea3; stroke: #984ea3"/>
     <use xlink:href="#m00d4254796" x="280.178206" y="290.560727" style="fill: #984ea3; stroke: #984ea3"/>
     <use xlink:href="#m00d4254796" x="304.029402" y="290.687459" style="fill: #984ea3; stroke: #984ea3"/>
     <use xlink:href="#m00d4254796" x="327.880598" y="290.805266" style="fill: #984ea3; stroke: #984ea3"/>
     <use xlink:href="#m00d4254796" x="351.731794" y="290.690137" style="fill: #984ea3; stroke: #984ea3"/>
     <use xlink:href="#m00d4254796" x="375.58299" y="290.698169" style="fill: #984ea3; stroke: #984ea3"/>
     <use xlink:href="#m00d4254796" x="399.434187" y="290.854353" style="fill: #984ea3; stroke: #984ea3"/>
     <use xlink:href="#m00d4254796" x="423.285383" y="290.902547" style="fill: #984ea3; stroke: #984ea3"/>
     <use xlink:href="#m00d4254796" x="447.136579" y="290.903439" style="fill: #984ea3; stroke: #984ea3"/>
     <use xlink:href="#m00d4254796" x="470.987775" y="290.915042" style="fill: #984ea3; stroke: #984ea3"/>
     <use xlink:href="#m00d4254796" x="494.838971" y="290.915934" style="fill: #984ea3; stroke: #984ea3"/>
     <use xlink:href="#m00d4254796" x="518.690167" y="290.971268" style="fill: #984ea3; stroke: #984ea3"/>
     <use xlink:href="#m00d4254796" x="542.541364" y="290.963235" style="fill: #984ea3; stroke: #984ea3"/>
    </g>
   </g>
   <g id="line2d_28">
    <path d="M 89.368636 288.561096 
L 113.219833 272.443613 
L 137.071029 258.052959 
L 160.922225 285.339706 
L 184.773421 280.731525 
L 208.624617 278.227995 
L 232.475813 276.242265 
L 256.32701 232.928465 
L 280.178206 286.116407 
L 304.029402 278.281261 
L 327.880598 281.262333 
L 351.731794 286.877005 
L 375.58299 288.947589 
L 399.434187 288.000558 
L 423.285383 289.885329 
L 447.136579 289.630764 
L 470.987775 284.246501 
L 494.838971 287.697063 
L 518.690167 289.840734 
L 542.541364 289.9739 
" clip-path="url(#pecef4ed50b)" style="fill: none; stroke: #ff7f00; stroke-width: 1.5; stroke-linecap: square"/>
    <defs>
     <path id="m406e34169c" d="M 0 3 
C 0.795609 3 1.55874 2.683901 2.12132 2.12132 
C 2.683901 1.55874 3 0.795609 3 0 
C 3 -0.795609 2.683901 -1.55874 2.12132 -2.12132 
C 1.55874 -2.683901 0.795609 -3 0 -3 
C -0.795609 -3 -1.55874 -2.683901 -2.12132 -2.12132 
C -2.683901 -1.55874 -3 -0.795609 -3 0 
C -3 0.795609 -2.683901 1.55874 -2.12132 2.12132 
C -1.55874 2.683901 -0.795609 3 0 3 
z
" style="stroke: #ff7f00"/>
    </defs>
    <g clip-path="url(#pecef4ed50b)">
     <use xlink:href="#m406e34169c" x="89.368636" y="288.561096" style="fill: #ff7f00; stroke: #ff7f00"/>
     <use xlink:href="#m406e34169c" x="113.219833" y="272.443613" style="fill: #ff7f00; stroke: #ff7f00"/>
     <use xlink:href="#m406e34169c" x="137.071029" y="258.052959" style="fill: #ff7f00; stroke: #ff7f00"/>
     <use xlink:href="#m406e34169c" x="160.922225" y="285.339706" style="fill: #ff7f00; stroke: #ff7f00"/>
     <use xlink:href="#m406e34169c" x="184.773421" y="280.731525" style="fill: #ff7f00; stroke: #ff7f00"/>
     <use xlink:href="#m406e34169c" x="208.624617" y="278.227995" style="fill: #ff7f00; stroke: #ff7f00"/>
     <use xlink:href="#m406e34169c" x="232.475813" y="276.242265" style="fill: #ff7f00; stroke: #ff7f00"/>
     <use xlink:href="#m406e34169c" x="256.32701" y="232.928465" style="fill: #ff7f00; stroke: #ff7f00"/>
     <use xlink:href="#m406e34169c" x="280.178206" y="286.116407" style="fill: #ff7f00; stroke: #ff7f00"/>
     <use xlink:href="#m406e34169c" x="304.029402" y="278.281261" style="fill: #ff7f00; stroke: #ff7f00"/>
     <use xlink:href="#m406e34169c" x="327.880598" y="281.262333" style="fill: #ff7f00; stroke: #ff7f00"/>
     <use xlink:href="#m406e34169c" x="351.731794" y="286.877005" style="fill: #ff7f00; stroke: #ff7f00"/>
     <use xlink:href="#m406e34169c" x="375.58299" y="288.947589" style="fill: #ff7f00; stroke: #ff7f00"/>
     <use xlink:href="#m406e34169c" x="399.434187" y="288.000558" style="fill: #ff7f00; stroke: #ff7f00"/>
     <use xlink:href="#m406e34169c" x="423.285383" y="289.885329" style="fill: #ff7f00; stroke: #ff7f00"/>
     <use xlink:href="#m406e34169c" x="447.136579" y="289.630764" style="fill: #ff7f00; stroke: #ff7f00"/>
     <use xlink:href="#m406e34169c" x="470.987775" y="284.246501" style="fill: #ff7f00; stroke: #ff7f00"/>
     <use xlink:href="#m406e34169c" x="494.838971" y="287.697063" style="fill: #ff7f00; stroke: #ff7f00"/>
     <use xlink:href="#m406e34169c" x="518.690167" y="289.840734" style="fill: #ff7f00; stroke: #ff7f00"/>
     <use xlink:href="#m406e34169c" x="542.541364" y="289.9739" style="fill: #ff7f00; stroke: #ff7f00"/>
    </g>
   </g>
   <g id="line2d_29">
    <path d="M 89.368636 290.785053 
L 113.219833 96.301648 
L 137.071029 230.876874 
L 160.922225 282.893517 
L 184.773421 287.784111 
L 208.624617 289.60663 
L 232.475813 290.35233 
L 256.32701 290.549187 
L 280.178206 290.687985 
L 304.029402 290.70885 
L 327.880598 290.82134 
L 351.731794 290.846741 
L 375.58299 290.92113 
L 399.434187 290.949252 
L 423.285383 290.960138 
L 447.136579 291.021827 
L 470.987775 291.036341 
L 494.838971 291.044506 
L 518.690167 291.03362 
L 542.541364 291.020012 
" clip-path="url(#pecef4ed50b)" style="fill: none; stroke: #377eb8; stroke-width: 1.5; stroke-linecap: square"/>
    <defs>
     <path id="mfa9a6be864" d="M 0 3 
C 0.795609 3 1.55874 2.683901 2.12132 2.12132 
C 2.683901 1.55874 3 0.795609 3 0 
C 3 -0.795609 2.683901 -1.55874 2.12132 -2.12132 
C 1.55874 -2.683901 0.795609 -3 0 -3 
C -0.795609 -3 -1.55874 -2.683901 -2.12132 -2.12132 
C -2.683901 -1.55874 -3 -0.795609 -3 0 
C -3 0.795609 -2.683901 1.55874 -2.12132 2.12132 
C -1.55874 2.683901 -0.795609 3 0 3 
z
" style="stroke: #377eb8"/>
    </defs>
    <g clip-path="url(#pecef4ed50b)">
     <use xlink:href="#mfa9a6be864" x="89.368636" y="290.785053" style="fill: #377eb8; stroke: #377eb8"/>
     <use xlink:href="#mfa9a6be864" x="113.219833" y="96.301648" style="fill: #377eb8; stroke: #377eb8"/>
     <use xlink:href="#mfa9a6be864" x="137.071029" y="230.876874" style="fill: #377eb8; stroke: #377eb8"/>
     <use xlink:href="#mfa9a6be864" x="160.922225" y="282.893517" style="fill: #377eb8; stroke: #377eb8"/>
     <use xlink:href="#mfa9a6be864" x="184.773421" y="287.784111" style="fill: #377eb8; stroke: #377eb8"/>
     <use xlink:href="#mfa9a6be864" x="208.624617" y="289.60663" style="fill: #377eb8; stroke: #377eb8"/>
     <use xlink:href="#mfa9a6be864" x="232.475813" y="290.35233" style="fill: #377eb8; stroke: #377eb8"/>
     <use xlink:href="#mfa9a6be864" x="256.32701" y="290.549187" style="fill: #377eb8; stroke: #377eb8"/>
     <use xlink:href="#mfa9a6be864" x="280.178206" y="290.687985" style="fill: #377eb8; stroke: #377eb8"/>
     <use xlink:href="#mfa9a6be864" x="304.029402" y="290.70885" style="fill: #377eb8; stroke: #377eb8"/>
     <use xlink:href="#mfa9a6be864" x="327.880598" y="290.82134" style="fill: #377eb8; stroke: #377eb8"/>
     <use xlink:href="#mfa9a6be864" x="351.731794" y="290.846741" style="fill: #377eb8; stroke: #377eb8"/>
     <use xlink:href="#mfa9a6be864" x="375.58299" y="290.92113" style="fill: #377eb8; stroke: #377eb8"/>
     <use xlink:href="#mfa9a6be864" x="399.434187" y="290.949252" style="fill: #377eb8; stroke: #377eb8"/>
     <use xlink:href="#mfa9a6be864" x="423.285383" y="290.960138" style="fill: #377eb8; stroke: #377eb8"/>
     <use xlink:href="#mfa9a6be864" x="447.136579" y="291.021827" style="fill: #377eb8; stroke: #377eb8"/>
     <use xlink:href="#mfa9a6be864" x="470.987775" y="291.036341" style="fill: #377eb8; stroke: #377eb8"/>
     <use xlink:href="#mfa9a6be864" x="494.838971" y="291.044506" style="fill: #377eb8; stroke: #377eb8"/>
     <use xlink:href="#mfa9a6be864" x="518.690167" y="291.03362" style="fill: #377eb8; stroke: #377eb8"/>
     <use xlink:href="#mfa9a6be864" x="542.541364" y="291.020012" style="fill: #377eb8; stroke: #377eb8"/>
    </g>
   </g>
   <g id="patch_3">
    <path d="M 66.71 303.28 
L 66.71 16.92 
" style="fill: none; stroke: #000000; stroke-width: 0.8; stroke-linejoin: miter; stroke-linecap: square"/>
   </g>
   <g id="patch_4">
    <path d="M 565.2 303.28 
L 565.2 16.92 
" style="fill: none; stroke: #000000; stroke-width: 0.8; stroke-linejoin: miter; stroke-linecap: square"/>
   </g>
   <g id="patch_5">
    <path d="M 66.71 303.28 
L 565.2 303.28 
" style="fill: none; stroke: #000000; stroke-width: 0.8; stroke-linejoin: miter; stroke-linecap: square"/>
   </g>
   <g id="patch_6">
    <path d="M 66.71 16.92 
L 565.2 16.92 
" style="fill: none; stroke: #000000; stroke-width: 0.8; stroke-linejoin: miter; stroke-linecap: square"/>
   </g>
   <g id="legend_1">
    <g id="patch_7">
     <path d="M 234.16 100.21 
L 554 100.21 
Q 557.2 100.21 557.2 97.01 
L 557.2 28.12 
Q 557.2 24.92 554 24.92 
L 234.16 24.92 
Q 230.96 24.92 230.96 28.12 
L 230.96 97.01 
Q 230.96 100.21 234.16 100.21 
z
" style="fill: #ffffff; opacity: 0.8; stroke: #cccccc; stroke-linejoin: miter"/>
    </g>
    <g id="line2d_30">
     <path d="M 237.36 37.8775 
L 253.36 37.8775 
L 269.36 37.8775 
" style="fill: none; stroke: #984ea3; stroke-width: 1.5; stroke-linecap: square"/>
     <g>
      <use xlink:href="#m00d4254796" x="253.36" y="37.8775" style="fill: #984ea3; stroke: #984ea3"/>
     </g>
    </g>
    <g id="text_29">
     <!-- QSeed: $\mathbb{E}[calls] = 2.37$ -->
     <g transform="translate(282.16 43.4775) scale(0.16 -0.16)">
      <defs>
       <path id="DejaVuSans-51" d="M 2522 4238 
Q 1834 4238 1429 3725 
Q 1025 3213 1025 2328 
Q 1025 1447 1429 934 
Q 1834 422 2522 422 
Q 3209 422 3611 934 
Q 4013 1447 4013 2328 
Q 4013 3213 3611 3725 
Q 3209 4238 2522 4238 
z
M 3406 84 
L 4238 -825 
L 3475 -825 
L 2784 -78 
Q 2681 -84 2626 -87 
Q 2572 -91 2522 -91 
Q 1538 -91 948 567 
Q 359 1225 359 2328 
Q 359 3434 948 4092 
Q 1538 4750 2522 4750 
Q 3503 4750 4090 4092 
Q 4678 3434 4678 2328 
Q 4678 1516 4351 937 
Q 4025 359 3406 84 
z
" transform="scale(0.015625)"/>
       <path id="DejaVuSans-53" d="M 3425 4513 
L 3425 3897 
Q 3066 4069 2747 4153 
Q 2428 4238 2131 4238 
Q 1616 4238 1336 4038 
Q 1056 3838 1056 3469 
Q 1056 3159 1242 3001 
Q 1428 2844 1947 2747 
L 2328 2669 
Q 3034 2534 3370 2195 
Q 3706 1856 3706 1288 
Q 3706 609 3251 259 
Q 2797 -91 1919 -91 
Q 1588 -91 1214 -16 
Q 841 59 441 206 
L 441 856 
Q 825 641 1194 531 
Q 1563 422 1919 422 
Q 2459 422 2753 634 
Q 3047 847 3047 1241 
Q 3047 1584 2836 1778 
Q 2625 1972 2144 2069 
L 1759 2144 
Q 1053 2284 737 2584 
Q 422 2884 422 3419 
Q 422 4038 858 4394 
Q 1294 4750 2059 4750 
Q 2388 4750 2728 4690 
Q 3069 4631 3425 4513 
z
" transform="scale(0.015625)"/>
       <path id="DejaVuSans-64" d="M 2906 2969 
L 2906 4863 
L 3481 4863 
L 3481 0 
L 2906 0 
L 2906 525 
Q 2725 213 2448 61 
Q 2172 -91 1784 -91 
Q 1150 -91 751 415 
Q 353 922 353 1747 
Q 353 2572 751 3078 
Q 1150 3584 1784 3584 
Q 2172 3584 2448 3432 
Q 2725 3281 2906 2969 
z
M 947 1747 
Q 947 1113 1208 752 
Q 1469 391 1925 391 
Q 2381 391 2643 752 
Q 2906 1113 2906 1747 
Q 2906 2381 2643 2742 
Q 2381 3103 1925 3103 
Q 1469 3103 1208 2742 
Q 947 2381 947 1747 
z
" transform="scale(0.015625)"/>
       <path id="DejaVuSans-3a" d="M 750 794 
L 1409 794 
L 1409 0 
L 750 0 
L 750 794 
z
M 750 3309 
L 1409 3309 
L 1409 2516 
L 750 2516 
L 750 3309 
z
" transform="scale(0.015625)"/>
       <path id="STIXNonUnicode-Italic-e156" d="M 4250 4179 
L 4192 3942 
L 2150 3942 
L 1709 2266 
L 3514 2266 
L 3443 2029 
L 1645 2029 
L 1165 237 
L 3443 237 
L 3392 0 
L 109 0 
L 1229 4179 
L 4250 4179 
z
M 1914 3942 
L 1414 3942 
L 416 237 
L 928 237 
L 1914 3942 
z
" transform="scale(0.015625)"/>
       <path id="DejaVuSans-5b" d="M 550 4863 
L 1875 4863 
L 1875 4416 
L 1125 4416 
L 1125 -397 
L 1875 -397 
L 1875 -844 
L 550 -844 
L 550 4863 
z
" transform="scale(0.015625)"/>
       <path id="DejaVuSans-Oblique-63" d="M 3431 3366 
L 3316 2797 
Q 3109 2947 2876 3022 
Q 2644 3097 2394 3097 
Q 2119 3097 1870 3000 
Q 1622 2903 1453 2725 
Q 1184 2453 1037 2087 
Q 891 1722 891 1331 
Q 891 859 1127 628 
Q 1363 397 1844 397 
Q 2081 397 2348 469 
Q 2616 541 2906 684 
L 2797 116 
Q 2547 13 2283 -39 
Q 2019 -91 1741 -91 
Q 1044 -91 669 257 
Q 294 606 294 1253 
Q 294 1797 489 2255 
Q 684 2713 1069 3078 
Q 1331 3328 1684 3456 
Q 2038 3584 2456 3584 
Q 2700 3584 2940 3529 
Q 3181 3475 3431 3366 
z
" transform="scale(0.015625)"/>
       <path id="DejaVuSans-Oblique-61" d="M 3438 1997 
L 3047 0 
L 2472 0 
L 2578 531 
Q 2325 219 2001 64 
Q 1678 -91 1281 -91 
Q 834 -91 548 182 
Q 263 456 263 884 
Q 263 1497 752 1853 
Q 1241 2209 2100 2209 
L 2900 2209 
L 2931 2363 
Q 2938 2388 2941 2417 
Q 2944 2447 2944 2509 
Q 2944 2788 2717 2942 
Q 2491 3097 2081 3097 
Q 1800 3097 1504 3025 
Q 1209 2953 897 2809 
L 997 3341 
Q 1322 3463 1633 3523 
Q 1944 3584 2234 3584 
Q 2853 3584 3176 3315 
Q 3500 3047 3500 2534 
Q 3500 2431 3484 2292 
Q 3469 2153 3438 1997 
z
M 2816 1759 
L 2241 1759 
Q 1534 1759 1195 1570 
Q 856 1381 856 984 
Q 856 709 1029 553 
Q 1203 397 1509 397 
Q 1978 397 2328 733 
Q 2678 1069 2791 1631 
L 2816 1759 
z
" transform="scale(0.015625)"/>
       <path id="DejaVuSans-Oblique-6c" d="M 1172 4863 
L 1747 4863 
L 800 0 
L 225 0 
L 1172 4863 
z
" transform="scale(0.015625)"/>
       <path id="DejaVuSans-Oblique-73" d="M 3200 3397 
L 3091 2853 
Q 2863 2978 2609 3040 
Q 2356 3103 2088 3103 
Q 1634 3103 1373 2948 
Q 1113 2794 1113 2528 
Q 1113 2219 1719 2053 
Q 1766 2041 1788 2034 
L 1972 1978 
Q 2547 1819 2739 1644 
Q 2931 1469 2931 1166 
Q 2931 609 2489 259 
Q 2047 -91 1331 -91 
Q 1053 -91 747 -37 
Q 441 16 72 128 
L 184 722 
Q 500 559 806 475 
Q 1113 391 1394 391 
Q 1816 391 2080 572 
Q 2344 753 2344 1031 
Q 2344 1331 1650 1516 
L 1591 1531 
L 1394 1581 
Q 956 1697 753 1886 
Q 550 2075 550 2369 
Q 550 2928 970 3256 
Q 1391 3584 2113 3584 
Q 2397 3584 2667 3537 
Q 2938 3491 3200 3397 
z
" transform="scale(0.015625)"/>
       <path id="DejaVuSans-5d" d="M 1947 4863 
L 1947 -844 
L 622 -844 
L 622 -397 
L 1369 -397 
L 1369 4416 
L 622 4416 
L 622 4863 
L 1947 4863 
z
" transform="scale(0.015625)"/>
       <path id="DejaVuSans-3d" d="M 678 2906 
L 4684 2906 
L 4684 2381 
L 678 2381 
L 678 2906 
z
M 678 1631 
L 4684 1631 
L 4684 1100 
L 678 1100 
L 678 1631 
z
" transform="scale(0.015625)"/>
      </defs>
      <use xlink:href="#DejaVuSans-51" transform="translate(0 0.015625)"/>
      <use xlink:href="#DejaVuSans-53" transform="translate(78.710938 0.015625)"/>
      <use xlink:href="#DejaVuSans-65" transform="translate(142.1875 0.015625)"/>
      <use xlink:href="#DejaVuSans-65" transform="translate(203.710938 0.015625)"/>
      <use xlink:href="#DejaVuSans-64" transform="translate(265.234375 0.015625)"/>
      <use xlink:href="#DejaVuSans-3a" transform="translate(328.710938 0.015625)"/>
      <use xlink:href="#DejaVuSans-20" transform="translate(362.402344 0.015625)"/>
      <use xlink:href="#STIXNonUnicode-Italic-e156" transform="translate(394.189453 0.015625)"/>
      <use xlink:href="#DejaVuSans-5b" transform="translate(458.089447 0.015625)"/>
      <use xlink:href="#DejaVuSans-Oblique-63" transform="translate(497.103119 0.015625)"/>
      <use xlink:href="#DejaVuSans-Oblique-61" transform="translate(552.083588 0.015625)"/>
      <use xlink:href="#DejaVuSans-Oblique-6c" transform="translate(613.362885 0.015625)"/>
      <use xlink:href="#DejaVuSans-Oblique-6c" transform="translate(641.146088 0.015625)"/>
      <use xlink:href="#DejaVuSans-Oblique-73" transform="translate(668.929291 0.015625)"/>
      <use xlink:href="#DejaVuSans-5d" transform="translate(721.0289 0.015625)"/>
      <use xlink:href="#DejaVuSans-3d" transform="translate(779.524994 0.015625)"/>
      <use xlink:href="#DejaVuSans-32" transform="translate(882.796478 0.015625)"/>
      <use xlink:href="#DejaVuSans-2e" transform="translate(946.419525 0.015625)"/>
      <use xlink:href="#DejaVuSans-33" transform="translate(978.206635 0.015625)"/>
      <use xlink:href="#DejaVuSans-37" transform="translate(1041.829681 0.015625)"/>
     </g>
    </g>
    <g id="line2d_31">
     <path d="M 237.36 61.3625 
L 253.36 61.3625 
L 269.36 61.3625 
" style="fill: none; stroke: #ff7f00; stroke-width: 1.5; stroke-linecap: square"/>
     <g>
      <use xlink:href="#m406e34169c" x="253.36" y="61.3625" style="fill: #ff7f00; stroke: #ff7f00"/>
     </g>
    </g>
    <g id="text_30">
     <!-- QSearch: $\mathbb{E}[calls] = 12.05$ -->
     <g transform="translate(282.16 66.9625) scale(0.16 -0.16)">
      <defs>
       <path id="DejaVuSans-68" d="M 3513 2113 
L 3513 0 
L 2938 0 
L 2938 2094 
Q 2938 2591 2744 2837 
Q 2550 3084 2163 3084 
Q 1697 3084 1428 2787 
Q 1159 2491 1159 1978 
L 1159 0 
L 581 0 
L 581 4863 
L 1159 4863 
L 1159 2956 
Q 1366 3272 1645 3428 
Q 1925 3584 2291 3584 
Q 2894 3584 3203 3211 
Q 3513 2838 3513 2113 
z
" transform="scale(0.015625)"/>
      </defs>
      <use xlink:href="#DejaVuSans-51" transform="translate(0 0.015625)"/>
      <use xlink:href="#DejaVuSans-53" transform="translate(78.710938 0.015625)"/>
      <use xlink:href="#DejaVuSans-65" transform="translate(142.1875 0.015625)"/>
      <use xlink:href="#DejaVuSans-61" transform="translate(203.710938 0.015625)"/>
      <use xlink:href="#DejaVuSans-72" transform="translate(264.990234 0.015625)"/>
      <use xlink:href="#DejaVuSans-63" transform="translate(306.103516 0.015625)"/>
      <use xlink:href="#DejaVuSans-68" transform="translate(361.083984 0.015625)"/>
      <use xlink:href="#DejaVuSans-3a" transform="translate(424.462891 0.015625)"/>
      <use xlink:href="#DejaVuSans-20" transform="translate(458.154297 0.015625)"/>
      <use xlink:href="#STIXNonUnicode-Italic-e156" transform="translate(489.941406 0.015625)"/>
      <use xlink:href="#DejaVuSans-5b" transform="translate(553.8414 0.015625)"/>
      <use xlink:href="#DejaVuSans-Oblique-63" transform="translate(592.855072 0.015625)"/>
      <use xlink:href="#DejaVuSans-Oblique-61" transform="translate(647.835541 0.015625)"/>
      <use xlink:href="#DejaVuSans-Oblique-6c" transform="translate(709.114838 0.015625)"/>
      <use xlink:href="#DejaVuSans-Oblique-6c" transform="translate(736.898041 0.015625)"/>
      <use xlink:href="#DejaVuSans-Oblique-73" transform="translate(764.681244 0.015625)"/>
      <use xlink:href="#DejaVuSans-5d" transform="translate(816.780853 0.015625)"/>
      <use xlink:href="#DejaVuSans-3d" transform="translate(875.276947 0.015625)"/>
      <use xlink:href="#DejaVuSans-31" transform="translate(978.548431 0.015625)"/>
      <use xlink:href="#DejaVuSans-32" transform="translate(1042.171478 0.015625)"/>
      <use xlink:href="#DejaVuSans-2e" transform="translate(1105.794525 0.015625)"/>
      <use xlink:href="#DejaVuSans-30" transform="translate(1137.581635 0.015625)"/>
      <use xlink:href="#DejaVuSans-35" transform="translate(1201.204681 0.015625)"/>
     </g>
    </g>
    <g id="line2d_32">
     <path d="M 237.36 84.85 
L 253.36 84.85 
L 269.36 84.85 
" style="fill: none; stroke: #377eb8; stroke-width: 1.5; stroke-linecap: square"/>
     <g>
      <use xlink:href="#mfa9a6be864" x="253.36" y="84.85" style="fill: #377eb8; stroke: #377eb8"/>
     </g>
    </g>
    <g id="text_31">
     <!-- Randomly Seeded: $\mathbb{E}[calls] = 2.79$ -->
     <g transform="translate(282.16 90.45) scale(0.16 -0.16)">
      <defs>
       <path id="DejaVuSans-52" d="M 2841 2188 
Q 3044 2119 3236 1894 
Q 3428 1669 3622 1275 
L 4263 0 
L 3584 0 
L 2988 1197 
Q 2756 1666 2539 1819 
Q 2322 1972 1947 1972 
L 1259 1972 
L 1259 0 
L 628 0 
L 628 4666 
L 2053 4666 
Q 2853 4666 3247 4331 
Q 3641 3997 3641 3322 
Q 3641 2881 3436 2590 
Q 3231 2300 2841 2188 
z
M 1259 4147 
L 1259 2491 
L 2053 2491 
Q 2509 2491 2742 2702 
Q 2975 2913 2975 3322 
Q 2975 3731 2742 3939 
Q 2509 4147 2053 4147 
L 1259 4147 
z
" transform="scale(0.015625)"/>
      </defs>
      <use xlink:href="#DejaVuSans-52" transform="translate(0 0.015625)"/>
      <use xlink:href="#DejaVuSans-61" transform="translate(69.482422 0.015625)"/>
      <use xlink:href="#DejaVuSans-6e" transform="translate(130.761719 0.015625)"/>
      <use xlink:href="#DejaVuSans-64" transform="translate(194.140625 0.015625)"/>
      <use xlink:href="#DejaVuSans-6f" transform="translate(257.617188 0.015625)"/>
      <use xlink:href="#DejaVuSans-6d" transform="translate(318.798828 0.015625)"/>
      <use xlink:href="#DejaVuSans-6c" transform="translate(416.210938 0.015625)"/>
      <use xlink:href="#DejaVuSans-79" transform="translate(443.994141 0.015625)"/>
      <use xlink:href="#DejaVuSans-20" transform="translate(503.173828 0.015625)"/>
      <use xlink:href="#DejaVuSans-53" transform="translate(534.960938 0.015625)"/>
      <use xlink:href="#DejaVuSans-65" transform="translate(598.4375 0.015625)"/>
      <use xlink:href="#DejaVuSans-65" transform="translate(659.960938 0.015625)"/>
      <use xlink:href="#DejaVuSans-64" transform="translate(721.484375 0.015625)"/>
      <use xlink:href="#DejaVuSans-65" transform="translate(784.960938 0.015625)"/>
      <use xlink:href="#DejaVuSans-64" transform="translate(846.484375 0.015625)"/>
      <use xlink:href="#DejaVuSans-3a" transform="translate(909.960938 0.015625)"/>
      <use xlink:href="#DejaVuSans-20" transform="translate(943.652344 0.015625)"/>
      <use xlink:href="#STIXNonUnicode-Italic-e156" transform="translate(975.439453 0.015625)"/>
      <use xlink:href="#DejaVuSans-5b" transform="translate(1039.339447 0.015625)"/>
      <use xlink:href="#DejaVuSans-Oblique-63" transform="translate(1078.353119 0.015625)"/>
      <use xlink:href="#DejaVuSans-Oblique-61" transform="translate(1133.333588 0.015625)"/>
      <use xlink:href="#DejaVuSans-Oblique-6c" transform="translate(1194.612885 0.015625)"/>
      <use xlink:href="#DejaVuSans-Oblique-6c" transform="translate(1222.396088 0.015625)"/>
      <use xlink:href="#DejaVuSans-Oblique-73" transform="translate(1250.179291 0.015625)"/>
      <use xlink:href="#DejaVuSans-5d" transform="translate(1302.2789 0.015625)"/>
      <use xlink:href="#DejaVuSans-3d" transform="translate(1360.774994 0.015625)"/>
      <use xlink:href="#DejaVuSans-32" transform="translate(1464.046478 0.015625)"/>
      <use xlink:href="#DejaVuSans-2e" transform="translate(1527.669525 0.015625)"/>
      <use xlink:href="#DejaVuSans-37" transform="translate(1551.706635 0.015625)"/>
      <use xlink:href="#DejaVuSans-39" transform="translate(1615.329681 0.015625)"/>
     </g>
    </g>
   </g>
  </g>
 </g>
 <defs>
  <clipPath id="pecef4ed50b">
   <rect x="66.71" y="16.92" width="498.49" height="286.36"/>
  </clipPath>
 </defs>
</svg>
