<?xml version="1.0" encoding="utf-8" standalone="no"?>
<!DOCTYPE svg PUBLIC "-//W3C//DTD SVG 1.1//EN"
  "http://www.w3.org/Graphics/SVG/1.1/DTD/svg11.dtd">
<svg xmlns:xlink="http://www.w3.org/1999/xlink" width="576pt" height="360pt" viewBox="0 0 576 360" xmlns="http://www.w3.org/2000/svg" version="1.1">
 <metadata>
  <rdf:RDF xmlns:dc="http://purl.org/dc/elements/1.1/" xmlns:cc="http://creativecommons.org/ns#" xmlns:rdf="http://www.w3.org/1999/02/22-rdf-syntax-ns#">
   <cc:Work>
    <dc:type rdf:resource="http://purl.org/dc/dcmitype/StillImage"/>
    <dc:date>2023-04-25T17:57:22.005784</dc:date>
    <dc:format>image/svg+xml</dc:format>
    <dc:creator>
     <cc:Agent>
      <dc:title>Matplotlib v3.7.1, https://matplotlib.org/</dc:title>
     </cc:Agent>
    </dc:creator>
   </cc:Work>
  </rdf:RDF>
 </metadata>
 <defs>
  <style type="text/css">*{stroke-linejoin: round; stroke-linecap: butt}</style>
 </defs>
 <g id="figure_1">
  <g id="patch_1">
   <path d="M 0 360 
L 576 360 
L 576 0 
L 0 0 
z
" style="fill: #ffffff"/>
  </g>
  <g id="axes_1">
   <g id="patch_2">
    <path d="M 66.71 303.28 
L 565.2 303.28 
L 565.2 16.92 
L 66.71 16.92 
z
" style="fill: #ffffff"/>
   </g>
   <g id="PolyCollection_1">
    <path d="M 66.71 291.535851 
L 66.71 291.113319 
L 81.371471 291.52669 
L 96.032941 291.469437 
L 110.694412 291.305691 
L 125.355882 288.83119 
L 140.017353 284.778778 
L 154.678824 267.817966 
L 169.340294 283.245526 
L 184.001765 244.791704 
L 198.663235 284.4135 
L 213.324706 56.652868 
L 227.986176 291.535851 
L 242.647647 290.10222 
L 257.309118 286.645247 
L 271.970588 290.735445 
L 286.632059 289.292654 
L 301.293529 291.530126 
L 315.955 290.192681 
L 330.616471 291.448825 
L 345.277941 291.535851 
L 359.939412 290.161764 
L 374.600882 291.535851 
L 389.262353 291.535851 
L 403.923824 291.535851 
L 418.585294 291.52211 
L 433.246765 291.453406 
L 447.908235 291.535851 
L 462.569706 291.535851 
L 477.231176 291.535851 
L 491.892647 291.535851 
L 506.554118 291.487758 
L 521.215588 291.535851 
L 535.877059 291.535851 
L 550.538529 291.535851 
L 565.2 291.535851 
L 579.861471 291.535851 
L 594.522941 291.535851 
L 609.184412 291.535851 
L 623.845882 291.535851 
L 638.507353 291.535851 
L 653.168824 291.535851 
L 667.830294 291.535851 
L 682.491765 291.535851 
L 697.153235 291.535851 
L 711.814706 291.535851 
L 726.476176 291.535851 
L 726.476176 291.535851 
L 726.476176 291.535851 
L 711.814706 291.535851 
L 697.153235 291.535851 
L 682.491765 291.535851 
L 667.830294 291.535851 
L 653.168824 291.535851 
L 638.507353 291.535851 
L 623.845882 291.535851 
L 609.184412 291.535851 
L 594.522941 291.535851 
L 579.861471 291.535851 
L 565.2 291.535851 
L 550.538529 291.535851 
L 535.877059 291.535851 
L 521.215588 291.535851 
L 506.554118 291.535851 
L 491.892647 291.535851 
L 477.231176 291.535851 
L 462.569706 291.535851 
L 447.908235 291.535851 
L 433.246765 291.535851 
L 418.585294 291.535851 
L 403.923824 291.535851 
L 389.262353 291.535851 
L 374.600882 291.535851 
L 359.939412 291.535851 
L 345.277941 291.535851 
L 330.616471 291.535851 
L 315.955 291.535851 
L 301.293529 291.535851 
L 286.632059 291.535851 
L 271.970588 291.535851 
L 257.309118 291.535851 
L 242.647647 291.535851 
L 227.986176 291.535851 
L 213.324706 291.535851 
L 198.663235 291.535851 
L 184.001765 291.535851 
L 169.340294 291.535851 
L 154.678824 291.535851 
L 140.017353 291.535851 
L 125.355882 291.535851 
L 110.694412 291.535851 
L 96.032941 291.535851 
L 81.371471 291.535851 
L 66.71 291.535851 
z
" clip-path="url(#p405b88ff5a)" style="fill: #984ea3; fill-opacity: 0.9; stroke: #984ea3; stroke-opacity: 0.9"/>
   </g>
   <g id="PolyCollection_2">
    <path d="M 66.71 291.535851 
L 66.71 291.257598 
L 81.371471 291.525545 
L 96.032941 289.971682 
L 110.694412 291.056066 
L 125.355882 287.719324 
L 140.017353 283.887912 
L 154.678824 265.059486 
L 169.340294 282.576804 
L 184.001765 250.712874 
L 198.663235 281.567995 
L 213.324706 63.932094 
L 227.986176 291.535851 
L 242.647647 283.619965 
L 257.309118 286.562801 
L 271.970588 289.383115 
L 286.632059 291.074387 
L 301.293529 291.531271 
L 315.955 291.491193 
L 330.616471 291.523255 
L 345.277941 291.535851 
L 359.939412 291.457986 
L 374.600882 291.535851 
L 389.262353 291.535851 
L 403.923824 291.535851 
L 418.585294 291.535851 
L 433.246765 291.535851 
L 447.908235 291.535851 
L 462.569706 291.535851 
L 477.231176 291.535851 
L 491.892647 291.535851 
L 506.554118 291.535851 
L 521.215588 291.535851 
L 535.877059 291.535851 
L 550.538529 291.535851 
L 565.2 291.535851 
L 579.861471 291.535851 
L 594.522941 291.535851 
L 609.184412 291.535851 
L 623.845882 291.535851 
L 638.507353 291.535851 
L 653.168824 291.535851 
L 667.830294 291.535851 
L 682.491765 291.535851 
L 697.153235 291.535851 
L 711.814706 291.535851 
L 726.476176 291.535851 
L 726.476176 291.535851 
L 726.476176 291.535851 
L 711.814706 291.535851 
L 697.153235 291.535851 
L 682.491765 291.535851 
L 667.830294 291.535851 
L 653.168824 291.535851 
L 638.507353 291.535851 
L 623.845882 291.535851 
L 609.184412 291.535851 
L 594.522941 291.535851 
L 579.861471 291.535851 
L 565.2 291.535851 
L 550.538529 291.535851 
L 535.877059 291.535851 
L 521.215588 291.535851 
L 506.554118 291.535851 
L 491.892647 291.535851 
L 477.231176 291.535851 
L 462.569706 291.535851 
L 447.908235 291.535851 
L 433.246765 291.535851 
L 418.585294 291.535851 
L 403.923824 291.535851 
L 389.262353 291.535851 
L 374.600882 291.535851 
L 359.939412 291.535851 
L 345.277941 291.535851 
L 330.616471 291.535851 
L 315.955 291.535851 
L 301.293529 291.535851 
L 286.632059 291.535851 
L 271.970588 291.535851 
L 257.309118 291.535851 
L 242.647647 291.535851 
L 227.986176 291.535851 
L 213.324706 291.535851 
L 198.663235 291.535851 
L 184.001765 291.535851 
L 169.340294 291.535851 
L 154.678824 291.535851 
L 140.017353 291.535851 
L 125.355882 291.535851 
L 110.694412 291.535851 
L 96.032941 291.535851 
L 81.371471 291.535851 
L 66.71 291.535851 
z
" clip-path="url(#p405b88ff5a)" style="fill: #ff7f00; fill-opacity: 0.1; stroke: #ff7f00; stroke-opacity: 0.1"/>
   </g>
   <g id="PolyCollection_3">
    <path d="M 66.71 291.535851 
L 66.71 291.144236 
L 81.371471 291.527835 
L 96.032941 291.504934 
L 110.694412 291.159122 
L 125.355882 289.684269 
L 140.017353 287.09068 
L 154.678824 281.736321 
L 169.340294 283.635996 
L 184.001765 268.43745 
L 198.663235 274.019678 
L 213.324706 177.105328 
L 227.986176 291.52669 
L 242.647647 251.593434 
L 257.309118 276.097984 
L 271.970588 258.823422 
L 286.632059 259.796733 
L 301.293529 288.005593 
L 315.955 286.791816 
L 330.616471 284.680302 
L 345.277941 291.499209 
L 359.939412 272.54597 
L 374.600882 291.535851 
L 389.262353 291.532416 
L 403.923824 291.265614 
L 418.585294 291.059501 
L 433.246765 287.89223 
L 447.908235 291.535851 
L 462.569706 291.470582 
L 477.231176 291.535851 
L 491.892647 291.535851 
L 506.554118 287.520082 
L 521.215588 291.535851 
L 535.877059 291.535851 
L 550.538529 291.535851 
L 565.2 291.535851 
L 579.861471 290.825906 
L 594.522941 291.535851 
L 609.184412 291.535851 
L 623.845882 291.535851 
L 638.507353 291.535851 
L 653.168824 291.303401 
L 667.830294 291.535851 
L 682.491765 291.535851 
L 697.153235 291.535851 
L 711.814706 291.535851 
L 726.476176 291.52898 
L 726.476176 291.535851 
L 726.476176 291.535851 
L 711.814706 291.535851 
L 697.153235 291.535851 
L 682.491765 291.535851 
L 667.830294 291.535851 
L 653.168824 291.535851 
L 638.507353 291.535851 
L 623.845882 291.535851 
L 609.184412 291.535851 
L 594.522941 291.535851 
L 579.861471 291.535851 
L 565.2 291.535851 
L 550.538529 291.535851 
L 535.877059 291.535851 
L 521.215588 291.535851 
L 506.554118 291.535851 
L 491.892647 291.535851 
L 477.231176 291.535851 
L 462.569706 291.535851 
L 447.908235 291.535851 
L 433.246765 291.535851 
L 418.585294 291.535851 
L 403.923824 291.535851 
L 389.262353 291.535851 
L 374.600882 291.535851 
L 359.939412 291.535851 
L 345.277941 291.535851 
L 330.616471 291.535851 
L 315.955 291.535851 
L 301.293529 291.535851 
L 286.632059 291.535851 
L 271.970588 291.535851 
L 257.309118 291.535851 
L 242.647647 291.535851 
L 227.986176 291.535851 
L 213.324706 291.535851 
L 198.663235 291.535851 
L 184.001765 291.535851 
L 169.340294 291.535851 
L 154.678824 291.535851 
L 140.017353 291.535851 
L 125.355882 291.535851 
L 110.694412 291.535851 
L 96.032941 291.535851 
L 81.371471 291.535851 
L 66.71 291.535851 
z
" clip-path="url(#p405b88ff5a)" style="fill: #377eb8; fill-opacity: 0.5; stroke: #377eb8; stroke-opacity: 0.5"/>
   </g>
   <g id="matplotlib.axis_1">
    <g id="xtick_1">
     <g id="line2d_1">
      <defs>
       <path id="m2af743cc89" d="M 0 0 
L 0 3.5 
" style="stroke: #000000; stroke-width: 0.8"/>
      </defs>
      <g>
       <use xlink:href="#m2af743cc89" x="66.71" y="303.28" style="stroke: #000000; stroke-width: 0.8"/>
      </g>
     </g>
     <g id="text_1">
      <!-- 0.5 -->
      <g transform="translate(53.9875 322.4375) scale(0.16 -0.16)">
       <defs>
        <path id="DejaVuSans-30" d="M 2034 4250 
Q 1547 4250 1301 3770 
Q 1056 3291 1056 2328 
Q 1056 1369 1301 889 
Q 1547 409 2034 409 
Q 2525 409 2770 889 
Q 3016 1369 3016 2328 
Q 3016 3291 2770 3770 
Q 2525 4250 2034 4250 
z
M 2034 4750 
Q 2819 4750 3233 4129 
Q 3647 3509 3647 2328 
Q 3647 1150 3233 529 
Q 2819 -91 2034 -91 
Q 1250 -91 836 529 
Q 422 1150 422 2328 
Q 422 3509 836 4129 
Q 1250 4750 2034 4750 
z
" transform="scale(0.015625)"/>
        <path id="DejaVuSans-2e" d="M 684 794 
L 1344 794 
L 1344 0 
L 684 0 
L 684 794 
z
" transform="scale(0.015625)"/>
        <path id="DejaVuSans-35" d="M 691 4666 
L 3169 4666 
L 3169 4134 
L 1269 4134 
L 1269 2991 
Q 1406 3038 1543 3061 
Q 1681 3084 1819 3084 
Q 2600 3084 3056 2656 
Q 3513 2228 3513 1497 
Q 3513 744 3044 326 
Q 2575 -91 1722 -91 
Q 1428 -91 1123 -41 
Q 819 9 494 109 
L 494 744 
Q 775 591 1075 516 
Q 1375 441 1709 441 
Q 2250 441 2565 725 
Q 2881 1009 2881 1497 
Q 2881 1984 2565 2268 
Q 2250 2553 1709 2553 
Q 1456 2553 1204 2497 
Q 953 2441 691 2322 
L 691 4666 
z
" transform="scale(0.015625)"/>
       </defs>
       <use xlink:href="#DejaVuSans-30"/>
       <use xlink:href="#DejaVuSans-2e" x="63.623047"/>
       <use xlink:href="#DejaVuSans-35" x="95.410156"/>
      </g>
     </g>
    </g>
    <g id="xtick_2">
     <g id="line2d_2">
      <g>
       <use xlink:href="#m2af743cc89" x="140.017353" y="303.28" style="stroke: #000000; stroke-width: 0.8"/>
      </g>
     </g>
     <g id="text_2">
      <!-- 1.0 -->
      <g transform="translate(127.294853 322.4375) scale(0.16 -0.16)">
       <defs>
        <path id="DejaVuSans-31" d="M 794 531 
L 1825 531 
L 1825 4091 
L 703 3866 
L 703 4441 
L 1819 4666 
L 2450 4666 
L 2450 531 
L 3481 531 
L 3481 0 
L 794 0 
L 794 531 
z
" transform="scale(0.015625)"/>
       </defs>
       <use xlink:href="#DejaVuSans-31"/>
       <use xlink:href="#DejaVuSans-2e" x="63.623047"/>
       <use xlink:href="#DejaVuSans-30" x="95.410156"/>
      </g>
     </g>
    </g>
    <g id="xtick_3">
     <g id="line2d_3">
      <g>
       <use xlink:href="#m2af743cc89" x="213.324706" y="303.28" style="stroke: #000000; stroke-width: 0.8"/>
      </g>
     </g>
     <g id="text_3">
      <!-- 1.5 -->
      <g transform="translate(200.602206 322.4375) scale(0.16 -0.16)">
       <use xlink:href="#DejaVuSans-31"/>
       <use xlink:href="#DejaVuSans-2e" x="63.623047"/>
       <use xlink:href="#DejaVuSans-35" x="95.410156"/>
      </g>
     </g>
    </g>
    <g id="xtick_4">
     <g id="line2d_4">
      <g>
       <use xlink:href="#m2af743cc89" x="286.632059" y="303.28" style="stroke: #000000; stroke-width: 0.8"/>
      </g>
     </g>
     <g id="text_4">
      <!-- 2.0 -->
      <g transform="translate(273.909559 322.4375) scale(0.16 -0.16)">
       <defs>
        <path id="DejaVuSans-32" d="M 1228 531 
L 3431 531 
L 3431 0 
L 469 0 
L 469 531 
Q 828 903 1448 1529 
Q 2069 2156 2228 2338 
Q 2531 2678 2651 2914 
Q 2772 3150 2772 3378 
Q 2772 3750 2511 3984 
Q 2250 4219 1831 4219 
Q 1534 4219 1204 4116 
Q 875 4013 500 3803 
L 500 4441 
Q 881 4594 1212 4672 
Q 1544 4750 1819 4750 
Q 2544 4750 2975 4387 
Q 3406 4025 3406 3419 
Q 3406 3131 3298 2873 
Q 3191 2616 2906 2266 
Q 2828 2175 2409 1742 
Q 1991 1309 1228 531 
z
" transform="scale(0.015625)"/>
       </defs>
       <use xlink:href="#DejaVuSans-32"/>
       <use xlink:href="#DejaVuSans-2e" x="63.623047"/>
       <use xlink:href="#DejaVuSans-30" x="95.410156"/>
      </g>
     </g>
    </g>
    <g id="xtick_5">
     <g id="line2d_5">
      <g>
       <use xlink:href="#m2af743cc89" x="359.939412" y="303.28" style="stroke: #000000; stroke-width: 0.8"/>
      </g>
     </g>
     <g id="text_5">
      <!-- 2.5 -->
      <g transform="translate(347.216912 322.4375) scale(0.16 -0.16)">
       <use xlink:href="#DejaVuSans-32"/>
       <use xlink:href="#DejaVuSans-2e" x="63.623047"/>
       <use xlink:href="#DejaVuSans-35" x="95.410156"/>
      </g>
     </g>
    </g>
    <g id="xtick_6">
     <g id="line2d_6">
      <g>
       <use xlink:href="#m2af743cc89" x="433.246765" y="303.28" style="stroke: #000000; stroke-width: 0.8"/>
      </g>
     </g>
     <g id="text_6">
      <!-- 3.0 -->
      <g transform="translate(420.524265 322.4375) scale(0.16 -0.16)">
       <defs>
        <path id="DejaVuSans-33" d="M 2597 2516 
Q 3050 2419 3304 2112 
Q 3559 1806 3559 1356 
Q 3559 666 3084 287 
Q 2609 -91 1734 -91 
Q 1441 -91 1130 -33 
Q 819 25 488 141 
L 488 750 
Q 750 597 1062 519 
Q 1375 441 1716 441 
Q 2309 441 2620 675 
Q 2931 909 2931 1356 
Q 2931 1769 2642 2001 
Q 2353 2234 1838 2234 
L 1294 2234 
L 1294 2753 
L 1863 2753 
Q 2328 2753 2575 2939 
Q 2822 3125 2822 3475 
Q 2822 3834 2567 4026 
Q 2313 4219 1838 4219 
Q 1578 4219 1281 4162 
Q 984 4106 628 3988 
L 628 4550 
Q 988 4650 1302 4700 
Q 1616 4750 1894 4750 
Q 2613 4750 3031 4423 
Q 3450 4097 3450 3541 
Q 3450 3153 3228 2886 
Q 3006 2619 2597 2516 
z
" transform="scale(0.015625)"/>
       </defs>
       <use xlink:href="#DejaVuSans-33"/>
       <use xlink:href="#DejaVuSans-2e" x="63.623047"/>
       <use xlink:href="#DejaVuSans-30" x="95.410156"/>
      </g>
     </g>
    </g>
    <g id="xtick_7">
     <g id="line2d_7">
      <g>
       <use xlink:href="#m2af743cc89" x="506.554118" y="303.28" style="stroke: #000000; stroke-width: 0.8"/>
      </g>
     </g>
     <g id="text_7">
      <!-- 3.5 -->
      <g transform="translate(493.831618 322.4375) scale(0.16 -0.16)">
       <use xlink:href="#DejaVuSans-33"/>
       <use xlink:href="#DejaVuSans-2e" x="63.623047"/>
       <use xlink:href="#DejaVuSans-35" x="95.410156"/>
      </g>
     </g>
    </g>
    <g id="xtick_8">
     <g id="line2d_8">
      <defs>
       <path id="m5432f28538" d="M 0 0 
L 0 2 
" style="stroke: #000000; stroke-width: 0.6"/>
      </defs>
      <g>
       <use xlink:href="#m5432f28538" x="81.371471" y="303.28" style="stroke: #000000; stroke-width: 0.6"/>
      </g>
     </g>
    </g>
    <g id="xtick_9">
     <g id="line2d_9">
      <g>
       <use xlink:href="#m5432f28538" x="96.032941" y="303.28" style="stroke: #000000; stroke-width: 0.6"/>
      </g>
     </g>
    </g>
    <g id="xtick_10">
     <g id="line2d_10">
      <g>
       <use xlink:href="#m5432f28538" x="110.694412" y="303.28" style="stroke: #000000; stroke-width: 0.6"/>
      </g>
     </g>
    </g>
    <g id="xtick_11">
     <g id="line2d_11">
      <g>
       <use xlink:href="#m5432f28538" x="125.355882" y="303.28" style="stroke: #000000; stroke-width: 0.6"/>
      </g>
     </g>
    </g>
    <g id="xtick_12">
     <g id="line2d_12">
      <g>
       <use xlink:href="#m5432f28538" x="154.678824" y="303.28" style="stroke: #000000; stroke-width: 0.6"/>
      </g>
     </g>
    </g>
    <g id="xtick_13">
     <g id="line2d_13">
      <g>
       <use xlink:href="#m5432f28538" x="169.340294" y="303.28" style="stroke: #000000; stroke-width: 0.6"/>
      </g>
     </g>
    </g>
    <g id="xtick_14">
     <g id="line2d_14">
      <g>
       <use xlink:href="#m5432f28538" x="184.001765" y="303.28" style="stroke: #000000; stroke-width: 0.6"/>
      </g>
     </g>
    </g>
    <g id="xtick_15">
     <g id="line2d_15">
      <g>
       <use xlink:href="#m5432f28538" x="198.663235" y="303.28" style="stroke: #000000; stroke-width: 0.6"/>
      </g>
     </g>
    </g>
    <g id="xtick_16">
     <g id="line2d_16">
      <g>
       <use xlink:href="#m5432f28538" x="227.986176" y="303.28" style="stroke: #000000; stroke-width: 0.6"/>
      </g>
     </g>
    </g>
    <g id="xtick_17">
     <g id="line2d_17">
      <g>
       <use xlink:href="#m5432f28538" x="242.647647" y="303.28" style="stroke: #000000; stroke-width: 0.6"/>
      </g>
     </g>
    </g>
    <g id="xtick_18">
     <g id="line2d_18">
      <g>
       <use xlink:href="#m5432f28538" x="257.309118" y="303.28" style="stroke: #000000; stroke-width: 0.6"/>
      </g>
     </g>
    </g>
    <g id="xtick_19">
     <g id="line2d_19">
      <g>
       <use xlink:href="#m5432f28538" x="271.970588" y="303.28" style="stroke: #000000; stroke-width: 0.6"/>
      </g>
     </g>
    </g>
    <g id="xtick_20">
     <g id="line2d_20">
      <g>
       <use xlink:href="#m5432f28538" x="301.293529" y="303.28" style="stroke: #000000; stroke-width: 0.6"/>
      </g>
     </g>
    </g>
    <g id="xtick_21">
     <g id="line2d_21">
      <g>
       <use xlink:href="#m5432f28538" x="315.955" y="303.28" style="stroke: #000000; stroke-width: 0.6"/>
      </g>
     </g>
    </g>
    <g id="xtick_22">
     <g id="line2d_22">
      <g>
       <use xlink:href="#m5432f28538" x="330.616471" y="303.28" style="stroke: #000000; stroke-width: 0.6"/>
      </g>
     </g>
    </g>
    <g id="xtick_23">
     <g id="line2d_23">
      <g>
       <use xlink:href="#m5432f28538" x="345.277941" y="303.28" style="stroke: #000000; stroke-width: 0.6"/>
      </g>
     </g>
    </g>
    <g id="xtick_24">
     <g id="line2d_24">
      <g>
       <use xlink:href="#m5432f28538" x="374.600882" y="303.28" style="stroke: #000000; stroke-width: 0.6"/>
      </g>
     </g>
    </g>
    <g id="xtick_25">
     <g id="line2d_25">
      <g>
       <use xlink:href="#m5432f28538" x="389.262353" y="303.28" style="stroke: #000000; stroke-width: 0.6"/>
      </g>
     </g>
    </g>
    <g id="xtick_26">
     <g id="line2d_26">
      <g>
       <use xlink:href="#m5432f28538" x="403.923824" y="303.28" style="stroke: #000000; stroke-width: 0.6"/>
      </g>
     </g>
    </g>
    <g id="xtick_27">
     <g id="line2d_27">
      <g>
       <use xlink:href="#m5432f28538" x="418.585294" y="303.28" style="stroke: #000000; stroke-width: 0.6"/>
      </g>
     </g>
    </g>
    <g id="xtick_28">
     <g id="line2d_28">
      <g>
       <use xlink:href="#m5432f28538" x="447.908235" y="303.28" style="stroke: #000000; stroke-width: 0.6"/>
      </g>
     </g>
    </g>
    <g id="xtick_29">
     <g id="line2d_29">
      <g>
       <use xlink:href="#m5432f28538" x="462.569706" y="303.28" style="stroke: #000000; stroke-width: 0.6"/>
      </g>
     </g>
    </g>
    <g id="xtick_30">
     <g id="line2d_30">
      <g>
       <use xlink:href="#m5432f28538" x="477.231176" y="303.28" style="stroke: #000000; stroke-width: 0.6"/>
      </g>
     </g>
    </g>
    <g id="xtick_31">
     <g id="line2d_31">
      <g>
       <use xlink:href="#m5432f28538" x="491.892647" y="303.28" style="stroke: #000000; stroke-width: 0.6"/>
      </g>
     </g>
    </g>
    <g id="xtick_32">
     <g id="line2d_32">
      <g>
       <use xlink:href="#m5432f28538" x="521.215588" y="303.28" style="stroke: #000000; stroke-width: 0.6"/>
      </g>
     </g>
    </g>
    <g id="xtick_33">
     <g id="line2d_33">
      <g>
       <use xlink:href="#m5432f28538" x="535.877059" y="303.28" style="stroke: #000000; stroke-width: 0.6"/>
      </g>
     </g>
    </g>
    <g id="xtick_34">
     <g id="line2d_34">
      <g>
       <use xlink:href="#m5432f28538" x="550.538529" y="303.28" style="stroke: #000000; stroke-width: 0.6"/>
      </g>
     </g>
    </g>
    <g id="xtick_35">
     <g id="line2d_35">
      <g>
       <use xlink:href="#m5432f28538" x="565.2" y="303.28" style="stroke: #000000; stroke-width: 0.6"/>
      </g>
     </g>
    </g>
    <g id="text_8">
     <!-- Optimized / Original  CNOT Gate Count -->
     <g transform="translate(121.108125 344.961875) scale(0.2 -0.2)">
      <defs>
       <path id="DejaVuSans-4f" d="M 2522 4238 
Q 1834 4238 1429 3725 
Q 1025 3213 1025 2328 
Q 1025 1447 1429 934 
Q 1834 422 2522 422 
Q 3209 422 3611 934 
Q 4013 1447 4013 2328 
Q 4013 3213 3611 3725 
Q 3209 4238 2522 4238 
z
M 2522 4750 
Q 3503 4750 4090 4092 
Q 4678 3434 4678 2328 
Q 4678 1225 4090 567 
Q 3503 -91 2522 -91 
Q 1538 -91 948 565 
Q 359 1222 359 2328 
Q 359 3434 948 4092 
Q 1538 4750 2522 4750 
z
" transform="scale(0.015625)"/>
       <path id="DejaVuSans-70" d="M 1159 525 
L 1159 -1331 
L 581 -1331 
L 581 3500 
L 1159 3500 
L 1159 2969 
Q 1341 3281 1617 3432 
Q 1894 3584 2278 3584 
Q 2916 3584 3314 3078 
Q 3713 2572 3713 1747 
Q 3713 922 3314 415 
Q 2916 -91 2278 -91 
Q 1894 -91 1617 61 
Q 1341 213 1159 525 
z
M 3116 1747 
Q 3116 2381 2855 2742 
Q 2594 3103 2138 3103 
Q 1681 3103 1420 2742 
Q 1159 2381 1159 1747 
Q 1159 1113 1420 752 
Q 1681 391 2138 391 
Q 2594 391 2855 752 
Q 3116 1113 3116 1747 
z
" transform="scale(0.015625)"/>
       <path id="DejaVuSans-74" d="M 1172 4494 
L 1172 3500 
L 2356 3500 
L 2356 3053 
L 1172 3053 
L 1172 1153 
Q 1172 725 1289 603 
Q 1406 481 1766 481 
L 2356 481 
L 2356 0 
L 1766 0 
Q 1100 0 847 248 
Q 594 497 594 1153 
L 594 3053 
L 172 3053 
L 172 3500 
L 594 3500 
L 594 4494 
L 1172 4494 
z
" transform="scale(0.015625)"/>
       <path id="DejaVuSans-69" d="M 603 3500 
L 1178 3500 
L 1178 0 
L 603 0 
L 603 3500 
z
M 603 4863 
L 1178 4863 
L 1178 4134 
L 603 4134 
L 603 4863 
z
" transform="scale(0.015625)"/>
       <path id="DejaVuSans-6d" d="M 3328 2828 
Q 3544 3216 3844 3400 
Q 4144 3584 4550 3584 
Q 5097 3584 5394 3201 
Q 5691 2819 5691 2113 
L 5691 0 
L 5113 0 
L 5113 2094 
Q 5113 2597 4934 2840 
Q 4756 3084 4391 3084 
Q 3944 3084 3684 2787 
Q 3425 2491 3425 1978 
L 3425 0 
L 2847 0 
L 2847 2094 
Q 2847 2600 2669 2842 
Q 2491 3084 2119 3084 
Q 1678 3084 1418 2786 
Q 1159 2488 1159 1978 
L 1159 0 
L 581 0 
L 581 3500 
L 1159 3500 
L 1159 2956 
Q 1356 3278 1631 3431 
Q 1906 3584 2284 3584 
Q 2666 3584 2933 3390 
Q 3200 3197 3328 2828 
z
" transform="scale(0.015625)"/>
       <path id="DejaVuSans-7a" d="M 353 3500 
L 3084 3500 
L 3084 2975 
L 922 459 
L 3084 459 
L 3084 0 
L 275 0 
L 275 525 
L 2438 3041 
L 353 3041 
L 353 3500 
z
" transform="scale(0.015625)"/>
       <path id="DejaVuSans-65" d="M 3597 1894 
L 3597 1613 
L 953 1613 
Q 991 1019 1311 708 
Q 1631 397 2203 397 
Q 2534 397 2845 478 
Q 3156 559 3463 722 
L 3463 178 
Q 3153 47 2828 -22 
Q 2503 -91 2169 -91 
Q 1331 -91 842 396 
Q 353 884 353 1716 
Q 353 2575 817 3079 
Q 1281 3584 2069 3584 
Q 2775 3584 3186 3129 
Q 3597 2675 3597 1894 
z
M 3022 2063 
Q 3016 2534 2758 2815 
Q 2500 3097 2075 3097 
Q 1594 3097 1305 2825 
Q 1016 2553 972 2059 
L 3022 2063 
z
" transform="scale(0.015625)"/>
       <path id="DejaVuSans-64" d="M 2906 2969 
L 2906 4863 
L 3481 4863 
L 3481 0 
L 2906 0 
L 2906 525 
Q 2725 213 2448 61 
Q 2172 -91 1784 -91 
Q 1150 -91 751 415 
Q 353 922 353 1747 
Q 353 2572 751 3078 
Q 1150 3584 1784 3584 
Q 2172 3584 2448 3432 
Q 2725 3281 2906 2969 
z
M 947 1747 
Q 947 1113 1208 752 
Q 1469 391 1925 391 
Q 2381 391 2643 752 
Q 2906 1113 2906 1747 
Q 2906 2381 2643 2742 
Q 2381 3103 1925 3103 
Q 1469 3103 1208 2742 
Q 947 2381 947 1747 
z
" transform="scale(0.015625)"/>
       <path id="DejaVuSans-20" transform="scale(0.015625)"/>
       <path id="DejaVuSans-2f" d="M 1625 4666 
L 2156 4666 
L 531 -594 
L 0 -594 
L 1625 4666 
z
" transform="scale(0.015625)"/>
       <path id="DejaVuSans-72" d="M 2631 2963 
Q 2534 3019 2420 3045 
Q 2306 3072 2169 3072 
Q 1681 3072 1420 2755 
Q 1159 2438 1159 1844 
L 1159 0 
L 581 0 
L 581 3500 
L 1159 3500 
L 1159 2956 
Q 1341 3275 1631 3429 
Q 1922 3584 2338 3584 
Q 2397 3584 2469 3576 
Q 2541 3569 2628 3553 
L 2631 2963 
z
" transform="scale(0.015625)"/>
       <path id="DejaVuSans-67" d="M 2906 1791 
Q 2906 2416 2648 2759 
Q 2391 3103 1925 3103 
Q 1463 3103 1205 2759 
Q 947 2416 947 1791 
Q 947 1169 1205 825 
Q 1463 481 1925 481 
Q 2391 481 2648 825 
Q 2906 1169 2906 1791 
z
M 3481 434 
Q 3481 -459 3084 -895 
Q 2688 -1331 1869 -1331 
Q 1566 -1331 1297 -1286 
Q 1028 -1241 775 -1147 
L 775 -588 
Q 1028 -725 1275 -790 
Q 1522 -856 1778 -856 
Q 2344 -856 2625 -561 
Q 2906 -266 2906 331 
L 2906 616 
Q 2728 306 2450 153 
Q 2172 0 1784 0 
Q 1141 0 747 490 
Q 353 981 353 1791 
Q 353 2603 747 3093 
Q 1141 3584 1784 3584 
Q 2172 3584 2450 3431 
Q 2728 3278 2906 2969 
L 2906 3500 
L 3481 3500 
L 3481 434 
z
" transform="scale(0.015625)"/>
       <path id="DejaVuSans-6e" d="M 3513 2113 
L 3513 0 
L 2938 0 
L 2938 2094 
Q 2938 2591 2744 2837 
Q 2550 3084 2163 3084 
Q 1697 3084 1428 2787 
Q 1159 2491 1159 1978 
L 1159 0 
L 581 0 
L 581 3500 
L 1159 3500 
L 1159 2956 
Q 1366 3272 1645 3428 
Q 1925 3584 2291 3584 
Q 2894 3584 3203 3211 
Q 3513 2838 3513 2113 
z
" transform="scale(0.015625)"/>
       <path id="DejaVuSans-61" d="M 2194 1759 
Q 1497 1759 1228 1600 
Q 959 1441 959 1056 
Q 959 750 1161 570 
Q 1363 391 1709 391 
Q 2188 391 2477 730 
Q 2766 1069 2766 1631 
L 2766 1759 
L 2194 1759 
z
M 3341 1997 
L 3341 0 
L 2766 0 
L 2766 531 
Q 2569 213 2275 61 
Q 1981 -91 1556 -91 
Q 1019 -91 701 211 
Q 384 513 384 1019 
Q 384 1609 779 1909 
Q 1175 2209 1959 2209 
L 2766 2209 
L 2766 2266 
Q 2766 2663 2505 2880 
Q 2244 3097 1772 3097 
Q 1472 3097 1187 3025 
Q 903 2953 641 2809 
L 641 3341 
Q 956 3463 1253 3523 
Q 1550 3584 1831 3584 
Q 2591 3584 2966 3190 
Q 3341 2797 3341 1997 
z
" transform="scale(0.015625)"/>
       <path id="DejaVuSans-6c" d="M 603 4863 
L 1178 4863 
L 1178 0 
L 603 0 
L 603 4863 
z
" transform="scale(0.015625)"/>
       <path id="DejaVuSans-43" d="M 4122 4306 
L 4122 3641 
Q 3803 3938 3442 4084 
Q 3081 4231 2675 4231 
Q 1875 4231 1450 3742 
Q 1025 3253 1025 2328 
Q 1025 1406 1450 917 
Q 1875 428 2675 428 
Q 3081 428 3442 575 
Q 3803 722 4122 1019 
L 4122 359 
Q 3791 134 3420 21 
Q 3050 -91 2638 -91 
Q 1578 -91 968 557 
Q 359 1206 359 2328 
Q 359 3453 968 4101 
Q 1578 4750 2638 4750 
Q 3056 4750 3426 4639 
Q 3797 4528 4122 4306 
z
" transform="scale(0.015625)"/>
       <path id="DejaVuSans-4e" d="M 628 4666 
L 1478 4666 
L 3547 763 
L 3547 4666 
L 4159 4666 
L 4159 0 
L 3309 0 
L 1241 3903 
L 1241 0 
L 628 0 
L 628 4666 
z
" transform="scale(0.015625)"/>
       <path id="DejaVuSans-54" d="M -19 4666 
L 3928 4666 
L 3928 4134 
L 2272 4134 
L 2272 0 
L 1638 0 
L 1638 4134 
L -19 4134 
L -19 4666 
z
" transform="scale(0.015625)"/>
       <path id="DejaVuSans-47" d="M 3809 666 
L 3809 1919 
L 2778 1919 
L 2778 2438 
L 4434 2438 
L 4434 434 
Q 4069 175 3628 42 
Q 3188 -91 2688 -91 
Q 1594 -91 976 548 
Q 359 1188 359 2328 
Q 359 3472 976 4111 
Q 1594 4750 2688 4750 
Q 3144 4750 3555 4637 
Q 3966 4525 4313 4306 
L 4313 3634 
Q 3963 3931 3569 4081 
Q 3175 4231 2741 4231 
Q 1884 4231 1454 3753 
Q 1025 3275 1025 2328 
Q 1025 1384 1454 906 
Q 1884 428 2741 428 
Q 3075 428 3337 486 
Q 3600 544 3809 666 
z
" transform="scale(0.015625)"/>
       <path id="DejaVuSans-6f" d="M 1959 3097 
Q 1497 3097 1228 2736 
Q 959 2375 959 1747 
Q 959 1119 1226 758 
Q 1494 397 1959 397 
Q 2419 397 2687 759 
Q 2956 1122 2956 1747 
Q 2956 2369 2687 2733 
Q 2419 3097 1959 3097 
z
M 1959 3584 
Q 2709 3584 3137 3096 
Q 3566 2609 3566 1747 
Q 3566 888 3137 398 
Q 2709 -91 1959 -91 
Q 1206 -91 779 398 
Q 353 888 353 1747 
Q 353 2609 779 3096 
Q 1206 3584 1959 3584 
z
" transform="scale(0.015625)"/>
       <path id="DejaVuSans-75" d="M 544 1381 
L 544 3500 
L 1119 3500 
L 1119 1403 
Q 1119 906 1312 657 
Q 1506 409 1894 409 
Q 2359 409 2629 706 
Q 2900 1003 2900 1516 
L 2900 3500 
L 3475 3500 
L 3475 0 
L 2900 0 
L 2900 538 
Q 2691 219 2414 64 
Q 2138 -91 1772 -91 
Q 1169 -91 856 284 
Q 544 659 544 1381 
z
M 1991 3584 
L 1991 3584 
z
" transform="scale(0.015625)"/>
      </defs>
      <use xlink:href="#DejaVuSans-4f"/>
      <use xlink:href="#DejaVuSans-70" x="78.710938"/>
      <use xlink:href="#DejaVuSans-74" x="142.1875"/>
      <use xlink:href="#DejaVuSans-69" x="181.396484"/>
      <use xlink:href="#DejaVuSans-6d" x="209.179688"/>
      <use xlink:href="#DejaVuSans-69" x="306.591797"/>
      <use xlink:href="#DejaVuSans-7a" x="334.375"/>
      <use xlink:href="#DejaVuSans-65" x="386.865234"/>
      <use xlink:href="#DejaVuSans-64" x="448.388672"/>
      <use xlink:href="#DejaVuSans-20" x="511.865234"/>
      <use xlink:href="#DejaVuSans-2f" x="543.652344"/>
      <use xlink:href="#DejaVuSans-20" x="577.34375"/>
      <use xlink:href="#DejaVuSans-4f" x="609.130859"/>
      <use xlink:href="#DejaVuSans-72" x="687.841797"/>
      <use xlink:href="#DejaVuSans-69" x="728.955078"/>
      <use xlink:href="#DejaVuSans-67" x="756.738281"/>
      <use xlink:href="#DejaVuSans-69" x="820.214844"/>
      <use xlink:href="#DejaVuSans-6e" x="847.998047"/>
      <use xlink:href="#DejaVuSans-61" x="911.376953"/>
      <use xlink:href="#DejaVuSans-6c" x="972.65625"/>
      <use xlink:href="#DejaVuSans-20" x="1000.439453"/>
      <use xlink:href="#DejaVuSans-20" x="1032.226562"/>
      <use xlink:href="#DejaVuSans-43" x="1064.013672"/>
      <use xlink:href="#DejaVuSans-4e" x="1133.837891"/>
      <use xlink:href="#DejaVuSans-4f" x="1208.642578"/>
      <use xlink:href="#DejaVuSans-54" x="1287.353516"/>
      <use xlink:href="#DejaVuSans-20" x="1348.4375"/>
      <use xlink:href="#DejaVuSans-47" x="1380.224609"/>
      <use xlink:href="#DejaVuSans-61" x="1457.714844"/>
      <use xlink:href="#DejaVuSans-74" x="1518.994141"/>
      <use xlink:href="#DejaVuSans-65" x="1558.203125"/>
      <use xlink:href="#DejaVuSans-20" x="1619.726562"/>
      <use xlink:href="#DejaVuSans-43" x="1651.513672"/>
      <use xlink:href="#DejaVuSans-6f" x="1721.337891"/>
      <use xlink:href="#DejaVuSans-75" x="1782.519531"/>
      <use xlink:href="#DejaVuSans-6e" x="1845.898438"/>
      <use xlink:href="#DejaVuSans-74" x="1909.277344"/>
     </g>
    </g>
   </g>
   <g id="matplotlib.axis_2">
    <g id="ytick_1">
     <g id="line2d_36">
      <defs>
       <path id="m25ee936d01" d="M 0 0 
L -3.5 0 
" style="stroke: #000000; stroke-width: 0.8"/>
      </defs>
      <g>
       <use xlink:href="#m25ee936d01" x="66.71" y="291.535851" style="stroke: #000000; stroke-width: 0.8"/>
      </g>
     </g>
     <g id="text_9">
      <!-- 0.0 -->
      <g transform="translate(34.265 297.614601) scale(0.16 -0.16)">
       <use xlink:href="#DejaVuSans-30"/>
       <use xlink:href="#DejaVuSans-2e" x="63.623047"/>
       <use xlink:href="#DejaVuSans-30" x="95.410156"/>
      </g>
     </g>
    </g>
    <g id="ytick_2">
     <g id="line2d_37">
      <g>
       <use xlink:href="#m25ee936d01" x="66.71" y="222.881888" style="stroke: #000000; stroke-width: 0.8"/>
      </g>
     </g>
     <g id="text_10">
      <!-- 0.2 -->
      <g transform="translate(34.265 228.960638) scale(0.16 -0.16)">
       <use xlink:href="#DejaVuSans-30"/>
       <use xlink:href="#DejaVuSans-2e" x="63.623047"/>
       <use xlink:href="#DejaVuSans-32" x="95.410156"/>
      </g>
     </g>
    </g>
    <g id="ytick_3">
     <g id="line2d_38">
      <g>
       <use xlink:href="#m25ee936d01" x="66.71" y="154.227925" style="stroke: #000000; stroke-width: 0.8"/>
      </g>
     </g>
     <g id="text_11">
      <!-- 0.4 -->
      <g transform="translate(34.265 160.306675) scale(0.16 -0.16)">
       <defs>
        <path id="DejaVuSans-34" d="M 2419 4116 
L 825 1625 
L 2419 1625 
L 2419 4116 
z
M 2253 4666 
L 3047 4666 
L 3047 1625 
L 3713 1625 
L 3713 1100 
L 3047 1100 
L 3047 0 
L 2419 0 
L 2419 1100 
L 313 1100 
L 313 1709 
L 2253 4666 
z
" transform="scale(0.015625)"/>
       </defs>
       <use xlink:href="#DejaVuSans-30"/>
       <use xlink:href="#DejaVuSans-2e" x="63.623047"/>
       <use xlink:href="#DejaVuSans-34" x="95.410156"/>
      </g>
     </g>
    </g>
    <g id="ytick_4">
     <g id="line2d_39">
      <g>
       <use xlink:href="#m25ee936d01" x="66.71" y="85.573963" style="stroke: #000000; stroke-width: 0.8"/>
      </g>
     </g>
     <g id="text_12">
      <!-- 0.6 -->
      <g transform="translate(34.265 91.652713) scale(0.16 -0.16)">
       <defs>
        <path id="DejaVuSans-36" d="M 2113 2584 
Q 1688 2584 1439 2293 
Q 1191 2003 1191 1497 
Q 1191 994 1439 701 
Q 1688 409 2113 409 
Q 2538 409 2786 701 
Q 3034 994 3034 1497 
Q 3034 2003 2786 2293 
Q 2538 2584 2113 2584 
z
M 3366 4563 
L 3366 3988 
Q 3128 4100 2886 4159 
Q 2644 4219 2406 4219 
Q 1781 4219 1451 3797 
Q 1122 3375 1075 2522 
Q 1259 2794 1537 2939 
Q 1816 3084 2150 3084 
Q 2853 3084 3261 2657 
Q 3669 2231 3669 1497 
Q 3669 778 3244 343 
Q 2819 -91 2113 -91 
Q 1303 -91 875 529 
Q 447 1150 447 2328 
Q 447 3434 972 4092 
Q 1497 4750 2381 4750 
Q 2619 4750 2861 4703 
Q 3103 4656 3366 4563 
z
" transform="scale(0.015625)"/>
       </defs>
       <use xlink:href="#DejaVuSans-30"/>
       <use xlink:href="#DejaVuSans-2e" x="63.623047"/>
       <use xlink:href="#DejaVuSans-36" x="95.410156"/>
      </g>
     </g>
    </g>
    <g id="ytick_5">
     <g id="line2d_40">
      <g>
       <use xlink:href="#m25ee936d01" x="66.71" y="16.92" style="stroke: #000000; stroke-width: 0.8"/>
      </g>
     </g>
     <g id="text_13">
      <!-- 0.8 -->
      <g transform="translate(34.265 22.99875) scale(0.16 -0.16)">
       <defs>
        <path id="DejaVuSans-38" d="M 2034 2216 
Q 1584 2216 1326 1975 
Q 1069 1734 1069 1313 
Q 1069 891 1326 650 
Q 1584 409 2034 409 
Q 2484 409 2743 651 
Q 3003 894 3003 1313 
Q 3003 1734 2745 1975 
Q 2488 2216 2034 2216 
z
M 1403 2484 
Q 997 2584 770 2862 
Q 544 3141 544 3541 
Q 544 4100 942 4425 
Q 1341 4750 2034 4750 
Q 2731 4750 3128 4425 
Q 3525 4100 3525 3541 
Q 3525 3141 3298 2862 
Q 3072 2584 2669 2484 
Q 3125 2378 3379 2068 
Q 3634 1759 3634 1313 
Q 3634 634 3220 271 
Q 2806 -91 2034 -91 
Q 1263 -91 848 271 
Q 434 634 434 1313 
Q 434 1759 690 2068 
Q 947 2378 1403 2484 
z
M 1172 3481 
Q 1172 3119 1398 2916 
Q 1625 2713 2034 2713 
Q 2441 2713 2670 2916 
Q 2900 3119 2900 3481 
Q 2900 3844 2670 4047 
Q 2441 4250 2034 4250 
Q 1625 4250 1398 4047 
Q 1172 3844 1172 3481 
z
" transform="scale(0.015625)"/>
       </defs>
       <use xlink:href="#DejaVuSans-30"/>
       <use xlink:href="#DejaVuSans-2e" x="63.623047"/>
       <use xlink:href="#DejaVuSans-38" x="95.410156"/>
      </g>
     </g>
    </g>
    <g id="text_14">
     <!-- Frequency -->
     <g transform="translate(26.105625 211.759375) rotate(-90) scale(0.2 -0.2)">
      <defs>
       <path id="DejaVuSans-46" d="M 628 4666 
L 3309 4666 
L 3309 4134 
L 1259 4134 
L 1259 2759 
L 3109 2759 
L 3109 2228 
L 1259 2228 
L 1259 0 
L 628 0 
L 628 4666 
z
" transform="scale(0.015625)"/>
       <path id="DejaVuSans-71" d="M 947 1747 
Q 947 1113 1208 752 
Q 1469 391 1925 391 
Q 2381 391 2643 752 
Q 2906 1113 2906 1747 
Q 2906 2381 2643 2742 
Q 2381 3103 1925 3103 
Q 1469 3103 1208 2742 
Q 947 2381 947 1747 
z
M 2906 525 
Q 2725 213 2448 61 
Q 2172 -91 1784 -91 
Q 1150 -91 751 415 
Q 353 922 353 1747 
Q 353 2572 751 3078 
Q 1150 3584 1784 3584 
Q 2172 3584 2448 3432 
Q 2725 3281 2906 2969 
L 2906 3500 
L 3481 3500 
L 3481 -1331 
L 2906 -1331 
L 2906 525 
z
" transform="scale(0.015625)"/>
       <path id="DejaVuSans-63" d="M 3122 3366 
L 3122 2828 
Q 2878 2963 2633 3030 
Q 2388 3097 2138 3097 
Q 1578 3097 1268 2742 
Q 959 2388 959 1747 
Q 959 1106 1268 751 
Q 1578 397 2138 397 
Q 2388 397 2633 464 
Q 2878 531 3122 666 
L 3122 134 
Q 2881 22 2623 -34 
Q 2366 -91 2075 -91 
Q 1284 -91 818 406 
Q 353 903 353 1747 
Q 353 2603 823 3093 
Q 1294 3584 2113 3584 
Q 2378 3584 2631 3529 
Q 2884 3475 3122 3366 
z
" transform="scale(0.015625)"/>
       <path id="DejaVuSans-79" d="M 2059 -325 
Q 1816 -950 1584 -1140 
Q 1353 -1331 966 -1331 
L 506 -1331 
L 506 -850 
L 844 -850 
Q 1081 -850 1212 -737 
Q 1344 -625 1503 -206 
L 1606 56 
L 191 3500 
L 800 3500 
L 1894 763 
L 2988 3500 
L 3597 3500 
L 2059 -325 
z
" transform="scale(0.015625)"/>
      </defs>
      <use xlink:href="#DejaVuSans-46"/>
      <use xlink:href="#DejaVuSans-72" x="50.269531"/>
      <use xlink:href="#DejaVuSans-65" x="89.132812"/>
      <use xlink:href="#DejaVuSans-71" x="150.65625"/>
      <use xlink:href="#DejaVuSans-75" x="214.132812"/>
      <use xlink:href="#DejaVuSans-65" x="277.511719"/>
      <use xlink:href="#DejaVuSans-6e" x="339.035156"/>
      <use xlink:href="#DejaVuSans-63" x="402.414062"/>
      <use xlink:href="#DejaVuSans-79" x="457.394531"/>
     </g>
    </g>
   </g>
   <g id="line2d_41">
    <path d="M 66.71 291.113319 
L 81.371471 291.52669 
L 96.032941 291.469437 
L 110.694412 291.305691 
L 125.355882 288.83119 
L 140.017353 284.778778 
L 154.678824 267.817966 
L 169.340294 283.245526 
L 184.001765 244.791704 
L 198.663235 284.4135 
L 213.324706 56.652868 
L 227.986176 291.535851 
L 242.647647 290.10222 
L 257.309118 286.645247 
L 271.970588 290.735445 
L 286.632059 289.292654 
L 301.293529 291.530126 
L 315.955 290.192681 
L 330.616471 291.448825 
L 345.277941 291.535851 
L 359.939412 290.161764 
L 374.600882 291.535851 
L 389.262353 291.535851 
L 403.923824 291.535851 
L 418.585294 291.52211 
L 433.246765 291.453406 
L 447.908235 291.535851 
L 462.569706 291.535851 
L 477.231176 291.535851 
L 491.892647 291.535851 
L 506.554118 291.487758 
L 521.215588 291.535851 
L 535.877059 291.535851 
L 550.538529 291.535851 
L 565.2 291.535851 
L 577 291.535851 
" clip-path="url(#p405b88ff5a)" style="fill: none; stroke: #984ea3; stroke-width: 1.5; stroke-linecap: square"/>
    <defs>
     <path id="m5347fbc4fb" d="M 0 3 
C 0.795609 3 1.55874 2.683901 2.12132 2.12132 
C 2.683901 1.55874 3 0.795609 3 0 
C 3 -0.795609 2.683901 -1.55874 2.12132 -2.12132 
C 1.55874 -2.683901 0.795609 -3 0 -3 
C -0.795609 -3 -1.55874 -2.683901 -2.12132 -2.12132 
C -2.683901 -1.55874 -3 -0.795609 -3 0 
C -3 0.795609 -2.683901 1.55874 -2.12132 2.12132 
C -1.55874 2.683901 -0.795609 3 0 3 
z
" style="stroke: #984ea3"/>
    </defs>
    <g clip-path="url(#p405b88ff5a)">
     <use xlink:href="#m5347fbc4fb" x="66.71" y="291.113319" style="fill: #984ea3; stroke: #984ea3"/>
     <use xlink:href="#m5347fbc4fb" x="81.371471" y="291.52669" style="fill: #984ea3; stroke: #984ea3"/>
     <use xlink:href="#m5347fbc4fb" x="96.032941" y="291.469437" style="fill: #984ea3; stroke: #984ea3"/>
     <use xlink:href="#m5347fbc4fb" x="110.694412" y="291.305691" style="fill: #984ea3; stroke: #984ea3"/>
     <use xlink:href="#m5347fbc4fb" x="125.355882" y="288.83119" style="fill: #984ea3; stroke: #984ea3"/>
     <use xlink:href="#m5347fbc4fb" x="140.017353" y="284.778778" style="fill: #984ea3; stroke: #984ea3"/>
     <use xlink:href="#m5347fbc4fb" x="154.678824" y="267.817966" style="fill: #984ea3; stroke: #984ea3"/>
     <use xlink:href="#m5347fbc4fb" x="169.340294" y="283.245526" style="fill: #984ea3; stroke: #984ea3"/>
     <use xlink:href="#m5347fbc4fb" x="184.001765" y="244.791704" style="fill: #984ea3; stroke: #984ea3"/>
     <use xlink:href="#m5347fbc4fb" x="198.663235" y="284.4135" style="fill: #984ea3; stroke: #984ea3"/>
     <use xlink:href="#m5347fbc4fb" x="213.324706" y="56.652868" style="fill: #984ea3; stroke: #984ea3"/>
     <use xlink:href="#m5347fbc4fb" x="227.986176" y="291.535851" style="fill: #984ea3; stroke: #984ea3"/>
     <use xlink:href="#m5347fbc4fb" x="242.647647" y="290.10222" style="fill: #984ea3; stroke: #984ea3"/>
     <use xlink:href="#m5347fbc4fb" x="257.309118" y="286.645247" style="fill: #984ea3; stroke: #984ea3"/>
     <use xlink:href="#m5347fbc4fb" x="271.970588" y="290.735445" style="fill: #984ea3; stroke: #984ea3"/>
     <use xlink:href="#m5347fbc4fb" x="286.632059" y="289.292654" style="fill: #984ea3; stroke: #984ea3"/>
     <use xlink:href="#m5347fbc4fb" x="301.293529" y="291.530126" style="fill: #984ea3; stroke: #984ea3"/>
     <use xlink:href="#m5347fbc4fb" x="315.955" y="290.192681" style="fill: #984ea3; stroke: #984ea3"/>
     <use xlink:href="#m5347fbc4fb" x="330.616471" y="291.448825" style="fill: #984ea3; stroke: #984ea3"/>
     <use xlink:href="#m5347fbc4fb" x="345.277941" y="291.535851" style="fill: #984ea3; stroke: #984ea3"/>
     <use xlink:href="#m5347fbc4fb" x="359.939412" y="290.161764" style="fill: #984ea3; stroke: #984ea3"/>
     <use xlink:href="#m5347fbc4fb" x="374.600882" y="291.535851" style="fill: #984ea3; stroke: #984ea3"/>
     <use xlink:href="#m5347fbc4fb" x="389.262353" y="291.535851" style="fill: #984ea3; stroke: #984ea3"/>
     <use xlink:href="#m5347fbc4fb" x="403.923824" y="291.535851" style="fill: #984ea3; stroke: #984ea3"/>
     <use xlink:href="#m5347fbc4fb" x="418.585294" y="291.52211" style="fill: #984ea3; stroke: #984ea3"/>
     <use xlink:href="#m5347fbc4fb" x="433.246765" y="291.453406" style="fill: #984ea3; stroke: #984ea3"/>
     <use xlink:href="#m5347fbc4fb" x="447.908235" y="291.535851" style="fill: #984ea3; stroke: #984ea3"/>
     <use xlink:href="#m5347fbc4fb" x="462.569706" y="291.535851" style="fill: #984ea3; stroke: #984ea3"/>
     <use xlink:href="#m5347fbc4fb" x="477.231176" y="291.535851" style="fill: #984ea3; stroke: #984ea3"/>
     <use xlink:href="#m5347fbc4fb" x="491.892647" y="291.535851" style="fill: #984ea3; stroke: #984ea3"/>
     <use xlink:href="#m5347fbc4fb" x="506.554118" y="291.487758" style="fill: #984ea3; stroke: #984ea3"/>
     <use xlink:href="#m5347fbc4fb" x="521.215588" y="291.535851" style="fill: #984ea3; stroke: #984ea3"/>
     <use xlink:href="#m5347fbc4fb" x="535.877059" y="291.535851" style="fill: #984ea3; stroke: #984ea3"/>
     <use xlink:href="#m5347fbc4fb" x="550.538529" y="291.535851" style="fill: #984ea3; stroke: #984ea3"/>
     <use xlink:href="#m5347fbc4fb" x="565.2" y="291.535851" style="fill: #984ea3; stroke: #984ea3"/>
     <use xlink:href="#m5347fbc4fb" x="579.861471" y="291.535851" style="fill: #984ea3; stroke: #984ea3"/>
     <use xlink:href="#m5347fbc4fb" x="594.522941" y="291.535851" style="fill: #984ea3; stroke: #984ea3"/>
     <use xlink:href="#m5347fbc4fb" x="609.184412" y="291.535851" style="fill: #984ea3; stroke: #984ea3"/>
     <use xlink:href="#m5347fbc4fb" x="623.845882" y="291.535851" style="fill: #984ea3; stroke: #984ea3"/>
     <use xlink:href="#m5347fbc4fb" x="638.507353" y="291.535851" style="fill: #984ea3; stroke: #984ea3"/>
     <use xlink:href="#m5347fbc4fb" x="653.168824" y="291.535851" style="fill: #984ea3; stroke: #984ea3"/>
     <use xlink:href="#m5347fbc4fb" x="667.830294" y="291.535851" style="fill: #984ea3; stroke: #984ea3"/>
     <use xlink:href="#m5347fbc4fb" x="682.491765" y="291.535851" style="fill: #984ea3; stroke: #984ea3"/>
     <use xlink:href="#m5347fbc4fb" x="697.153235" y="291.535851" style="fill: #984ea3; stroke: #984ea3"/>
     <use xlink:href="#m5347fbc4fb" x="711.814706" y="291.535851" style="fill: #984ea3; stroke: #984ea3"/>
     <use xlink:href="#m5347fbc4fb" x="726.476176" y="291.535851" style="fill: #984ea3; stroke: #984ea3"/>
    </g>
   </g>
   <g id="line2d_42">
    <path d="M 66.71 291.257598 
L 81.371471 291.525545 
L 96.032941 289.971682 
L 110.694412 291.056066 
L 125.355882 287.719324 
L 140.017353 283.887912 
L 154.678824 265.059486 
L 169.340294 282.576804 
L 184.001765 250.712874 
L 198.663235 281.567995 
L 213.324706 63.932094 
L 227.986176 291.535851 
L 242.647647 283.619965 
L 257.309118 286.562801 
L 271.970588 289.383115 
L 286.632059 291.074387 
L 301.293529 291.531271 
L 315.955 291.491193 
L 330.616471 291.523255 
L 345.277941 291.535851 
L 359.939412 291.457986 
L 374.600882 291.535851 
L 389.262353 291.535851 
L 403.923824 291.535851 
L 418.585294 291.535851 
L 433.246765 291.535851 
L 447.908235 291.535851 
L 462.569706 291.535851 
L 477.231176 291.535851 
L 491.892647 291.535851 
L 506.554118 291.535851 
L 521.215588 291.535851 
L 535.877059 291.535851 
L 550.538529 291.535851 
L 565.2 291.535851 
L 577 291.535851 
" clip-path="url(#p405b88ff5a)" style="fill: none; stroke: #ff7f00; stroke-width: 1.5; stroke-linecap: square"/>
    <defs>
     <path id="mba6680e9a4" d="M 0 3 
C 0.795609 3 1.55874 2.683901 2.12132 2.12132 
C 2.683901 1.55874 3 0.795609 3 0 
C 3 -0.795609 2.683901 -1.55874 2.12132 -2.12132 
C 1.55874 -2.683901 0.795609 -3 0 -3 
C -0.795609 -3 -1.55874 -2.683901 -2.12132 -2.12132 
C -2.683901 -1.55874 -3 -0.795609 -3 0 
C -3 0.795609 -2.683901 1.55874 -2.12132 2.12132 
C -1.55874 2.683901 -0.795609 3 0 3 
z
" style="stroke: #ff7f00"/>
    </defs>
    <g clip-path="url(#p405b88ff5a)">
     <use xlink:href="#mba6680e9a4" x="66.71" y="291.257598" style="fill: #ff7f00; stroke: #ff7f00"/>
     <use xlink:href="#mba6680e9a4" x="81.371471" y="291.525545" style="fill: #ff7f00; stroke: #ff7f00"/>
     <use xlink:href="#mba6680e9a4" x="96.032941" y="289.971682" style="fill: #ff7f00; stroke: #ff7f00"/>
     <use xlink:href="#mba6680e9a4" x="110.694412" y="291.056066" style="fill: #ff7f00; stroke: #ff7f00"/>
     <use xlink:href="#mba6680e9a4" x="125.355882" y="287.719324" style="fill: #ff7f00; stroke: #ff7f00"/>
     <use xlink:href="#mba6680e9a4" x="140.017353" y="283.887912" style="fill: #ff7f00; stroke: #ff7f00"/>
     <use xlink:href="#mba6680e9a4" x="154.678824" y="265.059486" style="fill: #ff7f00; stroke: #ff7f00"/>
     <use xlink:href="#mba6680e9a4" x="169.340294" y="282.576804" style="fill: #ff7f00; stroke: #ff7f00"/>
     <use xlink:href="#mba6680e9a4" x="184.001765" y="250.712874" style="fill: #ff7f00; stroke: #ff7f00"/>
     <use xlink:href="#mba6680e9a4" x="198.663235" y="281.567995" style="fill: #ff7f00; stroke: #ff7f00"/>
     <use xlink:href="#mba6680e9a4" x="213.324706" y="63.932094" style="fill: #ff7f00; stroke: #ff7f00"/>
     <use xlink:href="#mba6680e9a4" x="227.986176" y="291.535851" style="fill: #ff7f00; stroke: #ff7f00"/>
     <use xlink:href="#mba6680e9a4" x="242.647647" y="283.619965" style="fill: #ff7f00; stroke: #ff7f00"/>
     <use xlink:href="#mba6680e9a4" x="257.309118" y="286.562801" style="fill: #ff7f00; stroke: #ff7f00"/>
     <use xlink:href="#mba6680e9a4" x="271.970588" y="289.383115" style="fill: #ff7f00; stroke: #ff7f00"/>
     <use xlink:href="#mba6680e9a4" x="286.632059" y="291.074387" style="fill: #ff7f00; stroke: #ff7f00"/>
     <use xlink:href="#mba6680e9a4" x="301.293529" y="291.531271" style="fill: #ff7f00; stroke: #ff7f00"/>
     <use xlink:href="#mba6680e9a4" x="315.955" y="291.491193" style="fill: #ff7f00; stroke: #ff7f00"/>
     <use xlink:href="#mba6680e9a4" x="330.616471" y="291.523255" style="fill: #ff7f00; stroke: #ff7f00"/>
     <use xlink:href="#mba6680e9a4" x="345.277941" y="291.535851" style="fill: #ff7f00; stroke: #ff7f00"/>
     <use xlink:href="#mba6680e9a4" x="359.939412" y="291.457986" style="fill: #ff7f00; stroke: #ff7f00"/>
     <use xlink:href="#mba6680e9a4" x="374.600882" y="291.535851" style="fill: #ff7f00; stroke: #ff7f00"/>
     <use xlink:href="#mba6680e9a4" x="389.262353" y="291.535851" style="fill: #ff7f00; stroke: #ff7f00"/>
     <use xlink:href="#mba6680e9a4" x="403.923824" y="291.535851" style="fill: #ff7f00; stroke: #ff7f00"/>
     <use xlink:href="#mba6680e9a4" x="418.585294" y="291.535851" style="fill: #ff7f00; stroke: #ff7f00"/>
     <use xlink:href="#mba6680e9a4" x="433.246765" y="291.535851" style="fill: #ff7f00; stroke: #ff7f00"/>
     <use xlink:href="#mba6680e9a4" x="447.908235" y="291.535851" style="fill: #ff7f00; stroke: #ff7f00"/>
     <use xlink:href="#mba6680e9a4" x="462.569706" y="291.535851" style="fill: #ff7f00; stroke: #ff7f00"/>
     <use xlink:href="#mba6680e9a4" x="477.231176" y="291.535851" style="fill: #ff7f00; stroke: #ff7f00"/>
     <use xlink:href="#mba6680e9a4" x="491.892647" y="291.535851" style="fill: #ff7f00; stroke: #ff7f00"/>
     <use xlink:href="#mba6680e9a4" x="506.554118" y="291.535851" style="fill: #ff7f00; stroke: #ff7f00"/>
     <use xlink:href="#mba6680e9a4" x="521.215588" y="291.535851" style="fill: #ff7f00; stroke: #ff7f00"/>
     <use xlink:href="#mba6680e9a4" x="535.877059" y="291.535851" style="fill: #ff7f00; stroke: #ff7f00"/>
     <use xlink:href="#mba6680e9a4" x="550.538529" y="291.535851" style="fill: #ff7f00; stroke: #ff7f00"/>
     <use xlink:href="#mba6680e9a4" x="565.2" y="291.535851" style="fill: #ff7f00; stroke: #ff7f00"/>
     <use xlink:href="#mba6680e9a4" x="579.861471" y="291.535851" style="fill: #ff7f00; stroke: #ff7f00"/>
     <use xlink:href="#mba6680e9a4" x="594.522941" y="291.535851" style="fill: #ff7f00; stroke: #ff7f00"/>
     <use xlink:href="#mba6680e9a4" x="609.184412" y="291.535851" style="fill: #ff7f00; stroke: #ff7f00"/>
     <use xlink:href="#mba6680e9a4" x="623.845882" y="291.535851" style="fill: #ff7f00; stroke: #ff7f00"/>
     <use xlink:href="#mba6680e9a4" x="638.507353" y="291.535851" style="fill: #ff7f00; stroke: #ff7f00"/>
     <use xlink:href="#mba6680e9a4" x="653.168824" y="291.535851" style="fill: #ff7f00; stroke: #ff7f00"/>
     <use xlink:href="#mba6680e9a4" x="667.830294" y="291.535851" style="fill: #ff7f00; stroke: #ff7f00"/>
     <use xlink:href="#mba6680e9a4" x="682.491765" y="291.535851" style="fill: #ff7f00; stroke: #ff7f00"/>
     <use xlink:href="#mba6680e9a4" x="697.153235" y="291.535851" style="fill: #ff7f00; stroke: #ff7f00"/>
     <use xlink:href="#mba6680e9a4" x="711.814706" y="291.535851" style="fill: #ff7f00; stroke: #ff7f00"/>
     <use xlink:href="#mba6680e9a4" x="726.476176" y="291.535851" style="fill: #ff7f00; stroke: #ff7f00"/>
    </g>
   </g>
   <g id="line2d_43">
    <path d="M 66.71 291.144236 
L 81.371471 291.527835 
L 96.032941 291.504934 
L 110.694412 291.159122 
L 125.355882 289.684269 
L 140.017353 287.09068 
L 154.678824 281.736321 
L 169.340294 283.635996 
L 184.001765 268.43745 
L 198.663235 274.019678 
L 213.324706 177.105328 
L 227.986176 291.52669 
L 242.647647 251.593434 
L 257.309118 276.097984 
L 271.970588 258.823422 
L 286.632059 259.796733 
L 301.293529 288.005593 
L 315.955 286.791816 
L 330.616471 284.680302 
L 345.277941 291.499209 
L 359.939412 272.54597 
L 374.600882 291.535851 
L 389.262353 291.532416 
L 403.923824 291.265614 
L 418.585294 291.059501 
L 433.246765 287.89223 
L 447.908235 291.535851 
L 462.569706 291.470582 
L 477.231176 291.535851 
L 491.892647 291.535851 
L 506.554118 287.520082 
L 521.215588 291.535851 
L 535.877059 291.535851 
L 550.538529 291.535851 
L 565.2 291.535851 
L 577 290.964465 
" clip-path="url(#p405b88ff5a)" style="fill: none; stroke: #377eb8; stroke-width: 1.5; stroke-linecap: square"/>
    <defs>
     <path id="mcd033e4d6f" d="M 0 3 
C 0.795609 3 1.55874 2.683901 2.12132 2.12132 
C 2.683901 1.55874 3 0.795609 3 0 
C 3 -0.795609 2.683901 -1.55874 2.12132 -2.12132 
C 1.55874 -2.683901 0.795609 -3 0 -3 
C -0.795609 -3 -1.55874 -2.683901 -2.12132 -2.12132 
C -2.683901 -1.55874 -3 -0.795609 -3 0 
C -3 0.795609 -2.683901 1.55874 -2.12132 2.12132 
C -1.55874 2.683901 -0.795609 3 0 3 
z
" style="stroke: #377eb8"/>
    </defs>
    <g clip-path="url(#p405b88ff5a)">
     <use xlink:href="#mcd033e4d6f" x="66.71" y="291.144236" style="fill: #377eb8; stroke: #377eb8"/>
     <use xlink:href="#mcd033e4d6f" x="81.371471" y="291.527835" style="fill: #377eb8; stroke: #377eb8"/>
     <use xlink:href="#mcd033e4d6f" x="96.032941" y="291.504934" style="fill: #377eb8; stroke: #377eb8"/>
     <use xlink:href="#mcd033e4d6f" x="110.694412" y="291.159122" style="fill: #377eb8; stroke: #377eb8"/>
     <use xlink:href="#mcd033e4d6f" x="125.355882" y="289.684269" style="fill: #377eb8; stroke: #377eb8"/>
     <use xlink:href="#mcd033e4d6f" x="140.017353" y="287.09068" style="fill: #377eb8; stroke: #377eb8"/>
     <use xlink:href="#mcd033e4d6f" x="154.678824" y="281.736321" style="fill: #377eb8; stroke: #377eb8"/>
     <use xlink:href="#mcd033e4d6f" x="169.340294" y="283.635996" style="fill: #377eb8; stroke: #377eb8"/>
     <use xlink:href="#mcd033e4d6f" x="184.001765" y="268.43745" style="fill: #377eb8; stroke: #377eb8"/>
     <use xlink:href="#mcd033e4d6f" x="198.663235" y="274.019678" style="fill: #377eb8; stroke: #377eb8"/>
     <use xlink:href="#mcd033e4d6f" x="213.324706" y="177.105328" style="fill: #377eb8; stroke: #377eb8"/>
     <use xlink:href="#mcd033e4d6f" x="227.986176" y="291.52669" style="fill: #377eb8; stroke: #377eb8"/>
     <use xlink:href="#mcd033e4d6f" x="242.647647" y="251.593434" style="fill: #377eb8; stroke: #377eb8"/>
     <use xlink:href="#mcd033e4d6f" x="257.309118" y="276.097984" style="fill: #377eb8; stroke: #377eb8"/>
     <use xlink:href="#mcd033e4d6f" x="271.970588" y="258.823422" style="fill: #377eb8; stroke: #377eb8"/>
     <use xlink:href="#mcd033e4d6f" x="286.632059" y="259.796733" style="fill: #377eb8; stroke: #377eb8"/>
     <use xlink:href="#mcd033e4d6f" x="301.293529" y="288.005593" style="fill: #377eb8; stroke: #377eb8"/>
     <use xlink:href="#mcd033e4d6f" x="315.955" y="286.791816" style="fill: #377eb8; stroke: #377eb8"/>
     <use xlink:href="#mcd033e4d6f" x="330.616471" y="284.680302" style="fill: #377eb8; stroke: #377eb8"/>
     <use xlink:href="#mcd033e4d6f" x="345.277941" y="291.499209" style="fill: #377eb8; stroke: #377eb8"/>
     <use xlink:href="#mcd033e4d6f" x="359.939412" y="272.54597" style="fill: #377eb8; stroke: #377eb8"/>
     <use xlink:href="#mcd033e4d6f" x="374.600882" y="291.535851" style="fill: #377eb8; stroke: #377eb8"/>
     <use xlink:href="#mcd033e4d6f" x="389.262353" y="291.532416" style="fill: #377eb8; stroke: #377eb8"/>
     <use xlink:href="#mcd033e4d6f" x="403.923824" y="291.265614" style="fill: #377eb8; stroke: #377eb8"/>
     <use xlink:href="#mcd033e4d6f" x="418.585294" y="291.059501" style="fill: #377eb8; stroke: #377eb8"/>
     <use xlink:href="#mcd033e4d6f" x="433.246765" y="287.89223" style="fill: #377eb8; stroke: #377eb8"/>
     <use xlink:href="#mcd033e4d6f" x="447.908235" y="291.535851" style="fill: #377eb8; stroke: #377eb8"/>
     <use xlink:href="#mcd033e4d6f" x="462.569706" y="291.470582" style="fill: #377eb8; stroke: #377eb8"/>
     <use xlink:href="#mcd033e4d6f" x="477.231176" y="291.535851" style="fill: #377eb8; stroke: #377eb8"/>
     <use xlink:href="#mcd033e4d6f" x="491.892647" y="291.535851" style="fill: #377eb8; stroke: #377eb8"/>
     <use xlink:href="#mcd033e4d6f" x="506.554118" y="287.520082" style="fill: #377eb8; stroke: #377eb8"/>
     <use xlink:href="#mcd033e4d6f" x="521.215588" y="291.535851" style="fill: #377eb8; stroke: #377eb8"/>
     <use xlink:href="#mcd033e4d6f" x="535.877059" y="291.535851" style="fill: #377eb8; stroke: #377eb8"/>
     <use xlink:href="#mcd033e4d6f" x="550.538529" y="291.535851" style="fill: #377eb8; stroke: #377eb8"/>
     <use xlink:href="#mcd033e4d6f" x="565.2" y="291.535851" style="fill: #377eb8; stroke: #377eb8"/>
     <use xlink:href="#mcd033e4d6f" x="579.861471" y="290.825906" style="fill: #377eb8; stroke: #377eb8"/>
     <use xlink:href="#mcd033e4d6f" x="594.522941" y="291.535851" style="fill: #377eb8; stroke: #377eb8"/>
     <use xlink:href="#mcd033e4d6f" x="609.184412" y="291.535851" style="fill: #377eb8; stroke: #377eb8"/>
     <use xlink:href="#mcd033e4d6f" x="623.845882" y="291.535851" style="fill: #377eb8; stroke: #377eb8"/>
     <use xlink:href="#mcd033e4d6f" x="638.507353" y="291.535851" style="fill: #377eb8; stroke: #377eb8"/>
     <use xlink:href="#mcd033e4d6f" x="653.168824" y="291.303401" style="fill: #377eb8; stroke: #377eb8"/>
     <use xlink:href="#mcd033e4d6f" x="667.830294" y="291.535851" style="fill: #377eb8; stroke: #377eb8"/>
     <use xlink:href="#mcd033e4d6f" x="682.491765" y="291.535851" style="fill: #377eb8; stroke: #377eb8"/>
     <use xlink:href="#mcd033e4d6f" x="697.153235" y="291.535851" style="fill: #377eb8; stroke: #377eb8"/>
     <use xlink:href="#mcd033e4d6f" x="711.814706" y="291.535851" style="fill: #377eb8; stroke: #377eb8"/>
     <use xlink:href="#mcd033e4d6f" x="726.476176" y="291.52898" style="fill: #377eb8; stroke: #377eb8"/>
    </g>
   </g>
   <g id="patch_3">
    <path d="M 66.71 303.28 
L 66.71 16.92 
" style="fill: none; stroke: #000000; stroke-width: 0.8; stroke-linejoin: miter; stroke-linecap: square"/>
   </g>
   <g id="patch_4">
    <path d="M 565.2 303.28 
L 565.2 16.92 
" style="fill: none; stroke: #000000; stroke-width: 0.8; stroke-linejoin: miter; stroke-linecap: square"/>
   </g>
   <g id="patch_5">
    <path d="M 66.71 303.28 
L 565.2 303.28 
" style="fill: none; stroke: #000000; stroke-width: 0.8; stroke-linejoin: miter; stroke-linecap: square"/>
   </g>
   <g id="patch_6">
    <path d="M 66.71 16.92 
L 565.2 16.92 
" style="fill: none; stroke: #000000; stroke-width: 0.8; stroke-linejoin: miter; stroke-linecap: square"/>
   </g>
   <g id="legend_1">
    <g id="patch_7">
     <path d="M 225.36 100.21 
L 554 100.21 
Q 557.2 100.21 557.2 97.01 
L 557.2 28.12 
Q 557.2 24.92 554 24.92 
L 225.36 24.92 
Q 222.16 24.92 222.16 28.12 
L 222.16 97.01 
Q 222.16 100.21 225.36 100.21 
z
" style="fill: #ffffff; opacity: 0.8; stroke: #cccccc; stroke-linejoin: miter"/>
    </g>
    <g id="line2d_44">
     <path d="M 228.56 37.8775 
L 244.56 37.8775 
L 260.56 37.8775 
" style="fill: none; stroke: #984ea3; stroke-width: 1.5; stroke-linecap: square"/>
     <g>
      <use xlink:href="#m5347fbc4fb" x="244.56" y="37.8775" style="fill: #984ea3; stroke: #984ea3"/>
     </g>
    </g>
    <g id="text_15">
     <!-- QSeed: $\mathbb{E}[cnots] = 0.92$ -->
     <g transform="translate(273.36 43.4775) scale(0.16 -0.16)">
      <defs>
       <path id="DejaVuSans-51" d="M 2522 4238 
Q 1834 4238 1429 3725 
Q 1025 3213 1025 2328 
Q 1025 1447 1429 934 
Q 1834 422 2522 422 
Q 3209 422 3611 934 
Q 4013 1447 4013 2328 
Q 4013 3213 3611 3725 
Q 3209 4238 2522 4238 
z
M 3406 84 
L 4238 -825 
L 3475 -825 
L 2784 -78 
Q 2681 -84 2626 -87 
Q 2572 -91 2522 -91 
Q 1538 -91 948 567 
Q 359 1225 359 2328 
Q 359 3434 948 4092 
Q 1538 4750 2522 4750 
Q 3503 4750 4090 4092 
Q 4678 3434 4678 2328 
Q 4678 1516 4351 937 
Q 4025 359 3406 84 
z
" transform="scale(0.015625)"/>
       <path id="DejaVuSans-53" d="M 3425 4513 
L 3425 3897 
Q 3066 4069 2747 4153 
Q 2428 4238 2131 4238 
Q 1616 4238 1336 4038 
Q 1056 3838 1056 3469 
Q 1056 3159 1242 3001 
Q 1428 2844 1947 2747 
L 2328 2669 
Q 3034 2534 3370 2195 
Q 3706 1856 3706 1288 
Q 3706 609 3251 259 
Q 2797 -91 1919 -91 
Q 1588 -91 1214 -16 
Q 841 59 441 206 
L 441 856 
Q 825 641 1194 531 
Q 1563 422 1919 422 
Q 2459 422 2753 634 
Q 3047 847 3047 1241 
Q 3047 1584 2836 1778 
Q 2625 1972 2144 2069 
L 1759 2144 
Q 1053 2284 737 2584 
Q 422 2884 422 3419 
Q 422 4038 858 4394 
Q 1294 4750 2059 4750 
Q 2388 4750 2728 4690 
Q 3069 4631 3425 4513 
z
" transform="scale(0.015625)"/>
       <path id="DejaVuSans-3a" d="M 750 794 
L 1409 794 
L 1409 0 
L 750 0 
L 750 794 
z
M 750 3309 
L 1409 3309 
L 1409 2516 
L 750 2516 
L 750 3309 
z
" transform="scale(0.015625)"/>
       <path id="STIXNonUnicode-Italic-e156" d="M 4250 4179 
L 4192 3942 
L 2150 3942 
L 1709 2266 
L 3514 2266 
L 3443 2029 
L 1645 2029 
L 1165 237 
L 3443 237 
L 3392 0 
L 109 0 
L 1229 4179 
L 4250 4179 
z
M 1914 3942 
L 1414 3942 
L 416 237 
L 928 237 
L 1914 3942 
z
" transform="scale(0.015625)"/>
       <path id="DejaVuSans-5b" d="M 550 4863 
L 1875 4863 
L 1875 4416 
L 1125 4416 
L 1125 -397 
L 1875 -397 
L 1875 -844 
L 550 -844 
L 550 4863 
z
" transform="scale(0.015625)"/>
       <path id="DejaVuSans-Oblique-63" d="M 3431 3366 
L 3316 2797 
Q 3109 2947 2876 3022 
Q 2644 3097 2394 3097 
Q 2119 3097 1870 3000 
Q 1622 2903 1453 2725 
Q 1184 2453 1037 2087 
Q 891 1722 891 1331 
Q 891 859 1127 628 
Q 1363 397 1844 397 
Q 2081 397 2348 469 
Q 2616 541 2906 684 
L 2797 116 
Q 2547 13 2283 -39 
Q 2019 -91 1741 -91 
Q 1044 -91 669 257 
Q 294 606 294 1253 
Q 294 1797 489 2255 
Q 684 2713 1069 3078 
Q 1331 3328 1684 3456 
Q 2038 3584 2456 3584 
Q 2700 3584 2940 3529 
Q 3181 3475 3431 3366 
z
" transform="scale(0.015625)"/>
       <path id="DejaVuSans-Oblique-6e" d="M 3566 2113 
L 3156 0 
L 2578 0 
L 2988 2091 
Q 3016 2238 3031 2350 
Q 3047 2463 3047 2528 
Q 3047 2791 2881 2937 
Q 2716 3084 2419 3084 
Q 1956 3084 1622 2776 
Q 1288 2469 1184 1941 
L 800 0 
L 225 0 
L 903 3500 
L 1478 3500 
L 1363 2950 
Q 1603 3253 1940 3418 
Q 2278 3584 2650 3584 
Q 3113 3584 3367 3334 
Q 3622 3084 3622 2631 
Q 3622 2519 3608 2391 
Q 3594 2263 3566 2113 
z
" transform="scale(0.015625)"/>
       <path id="DejaVuSans-Oblique-6f" d="M 1625 -91 
Q 1009 -91 651 289 
Q 294 669 294 1325 
Q 294 1706 417 2101 
Q 541 2497 738 2766 
Q 1047 3184 1428 3384 
Q 1809 3584 2291 3584 
Q 2888 3584 3255 3212 
Q 3622 2841 3622 2241 
Q 3622 1825 3500 1412 
Q 3378 1000 3181 728 
Q 2875 309 2494 109 
Q 2113 -91 1625 -91 
z
M 891 1344 
Q 891 869 1089 633 
Q 1288 397 1691 397 
Q 2269 397 2648 901 
Q 3028 1406 3028 2181 
Q 3028 2634 2825 2865 
Q 2622 3097 2228 3097 
Q 1903 3097 1650 2945 
Q 1397 2794 1197 2484 
Q 1050 2253 970 1956 
Q 891 1659 891 1344 
z
" transform="scale(0.015625)"/>
       <path id="DejaVuSans-Oblique-74" d="M 2706 3500 
L 2619 3053 
L 1472 3053 
L 1100 1153 
Q 1081 1047 1072 975 
Q 1063 903 1063 863 
Q 1063 663 1183 572 
Q 1303 481 1569 481 
L 2150 481 
L 2053 0 
L 1503 0 
Q 991 0 739 200 
Q 488 400 488 806 
Q 488 878 497 964 
Q 506 1050 525 1153 
L 897 3053 
L 409 3053 
L 500 3500 
L 978 3500 
L 1172 4494 
L 1747 4494 
L 1556 3500 
L 2706 3500 
z
" transform="scale(0.015625)"/>
       <path id="DejaVuSans-Oblique-73" d="M 3200 3397 
L 3091 2853 
Q 2863 2978 2609 3040 
Q 2356 3103 2088 3103 
Q 1634 3103 1373 2948 
Q 1113 2794 1113 2528 
Q 1113 2219 1719 2053 
Q 1766 2041 1788 2034 
L 1972 1978 
Q 2547 1819 2739 1644 
Q 2931 1469 2931 1166 
Q 2931 609 2489 259 
Q 2047 -91 1331 -91 
Q 1053 -91 747 -37 
Q 441 16 72 128 
L 184 722 
Q 500 559 806 475 
Q 1113 391 1394 391 
Q 1816 391 2080 572 
Q 2344 753 2344 1031 
Q 2344 1331 1650 1516 
L 1591 1531 
L 1394 1581 
Q 956 1697 753 1886 
Q 550 2075 550 2369 
Q 550 2928 970 3256 
Q 1391 3584 2113 3584 
Q 2397 3584 2667 3537 
Q 2938 3491 3200 3397 
z
" transform="scale(0.015625)"/>
       <path id="DejaVuSans-5d" d="M 1947 4863 
L 1947 -844 
L 622 -844 
L 622 -397 
L 1369 -397 
L 1369 4416 
L 622 4416 
L 622 4863 
L 1947 4863 
z
" transform="scale(0.015625)"/>
       <path id="DejaVuSans-3d" d="M 678 2906 
L 4684 2906 
L 4684 2381 
L 678 2381 
L 678 2906 
z
M 678 1631 
L 4684 1631 
L 4684 1100 
L 678 1100 
L 678 1631 
z
" transform="scale(0.015625)"/>
       <path id="DejaVuSans-39" d="M 703 97 
L 703 672 
Q 941 559 1184 500 
Q 1428 441 1663 441 
Q 2288 441 2617 861 
Q 2947 1281 2994 2138 
Q 2813 1869 2534 1725 
Q 2256 1581 1919 1581 
Q 1219 1581 811 2004 
Q 403 2428 403 3163 
Q 403 3881 828 4315 
Q 1253 4750 1959 4750 
Q 2769 4750 3195 4129 
Q 3622 3509 3622 2328 
Q 3622 1225 3098 567 
Q 2575 -91 1691 -91 
Q 1453 -91 1209 -44 
Q 966 3 703 97 
z
M 1959 2075 
Q 2384 2075 2632 2365 
Q 2881 2656 2881 3163 
Q 2881 3666 2632 3958 
Q 2384 4250 1959 4250 
Q 1534 4250 1286 3958 
Q 1038 3666 1038 3163 
Q 1038 2656 1286 2365 
Q 1534 2075 1959 2075 
z
" transform="scale(0.015625)"/>
      </defs>
      <use xlink:href="#DejaVuSans-51" transform="translate(0 0.015625)"/>
      <use xlink:href="#DejaVuSans-53" transform="translate(78.710938 0.015625)"/>
      <use xlink:href="#DejaVuSans-65" transform="translate(142.1875 0.015625)"/>
      <use xlink:href="#DejaVuSans-65" transform="translate(203.710938 0.015625)"/>
      <use xlink:href="#DejaVuSans-64" transform="translate(265.234375 0.015625)"/>
      <use xlink:href="#DejaVuSans-3a" transform="translate(328.710938 0.015625)"/>
      <use xlink:href="#DejaVuSans-20" transform="translate(362.402344 0.015625)"/>
      <use xlink:href="#STIXNonUnicode-Italic-e156" transform="translate(394.189453 0.015625)"/>
      <use xlink:href="#DejaVuSans-5b" transform="translate(458.089447 0.015625)"/>
      <use xlink:href="#DejaVuSans-Oblique-63" transform="translate(497.103119 0.015625)"/>
      <use xlink:href="#DejaVuSans-Oblique-6e" transform="translate(552.083588 0.015625)"/>
      <use xlink:href="#DejaVuSans-Oblique-6f" transform="translate(615.462494 0.015625)"/>
      <use xlink:href="#DejaVuSans-Oblique-74" transform="translate(676.644135 0.015625)"/>
      <use xlink:href="#DejaVuSans-Oblique-73" transform="translate(715.853119 0.015625)"/>
      <use xlink:href="#DejaVuSans-5d" transform="translate(767.952728 0.015625)"/>
      <use xlink:href="#DejaVuSans-3d" transform="translate(826.448822 0.015625)"/>
      <use xlink:href="#DejaVuSans-30" transform="translate(929.720306 0.015625)"/>
      <use xlink:href="#DejaVuSans-2e" transform="translate(993.343353 0.015625)"/>
      <use xlink:href="#DejaVuSans-39" transform="translate(1025.130463 0.015625)"/>
      <use xlink:href="#DejaVuSans-32" transform="translate(1087.00351 0.015625)"/>
     </g>
    </g>
    <g id="line2d_45">
     <path d="M 228.56 61.3625 
L 244.56 61.3625 
L 260.56 61.3625 
" style="fill: none; stroke: #ff7f00; stroke-width: 1.5; stroke-linecap: square"/>
     <g>
      <use xlink:href="#mba6680e9a4" x="244.56" y="61.3625" style="fill: #ff7f00; stroke: #ff7f00"/>
     </g>
    </g>
    <g id="text_16">
     <!-- QSearch: $\mathbb{E}[cnots] = 0.91$ -->
     <g transform="translate(273.36 66.9625) scale(0.16 -0.16)">
      <defs>
       <path id="DejaVuSans-68" d="M 3513 2113 
L 3513 0 
L 2938 0 
L 2938 2094 
Q 2938 2591 2744 2837 
Q 2550 3084 2163 3084 
Q 1697 3084 1428 2787 
Q 1159 2491 1159 1978 
L 1159 0 
L 581 0 
L 581 4863 
L 1159 4863 
L 1159 2956 
Q 1366 3272 1645 3428 
Q 1925 3584 2291 3584 
Q 2894 3584 3203 3211 
Q 3513 2838 3513 2113 
z
" transform="scale(0.015625)"/>
      </defs>
      <use xlink:href="#DejaVuSans-51" transform="translate(0 0.015625)"/>
      <use xlink:href="#DejaVuSans-53" transform="translate(78.710938 0.015625)"/>
      <use xlink:href="#DejaVuSans-65" transform="translate(142.1875 0.015625)"/>
      <use xlink:href="#DejaVuSans-61" transform="translate(203.710938 0.015625)"/>
      <use xlink:href="#DejaVuSans-72" transform="translate(264.990234 0.015625)"/>
      <use xlink:href="#DejaVuSans-63" transform="translate(306.103516 0.015625)"/>
      <use xlink:href="#DejaVuSans-68" transform="translate(361.083984 0.015625)"/>
      <use xlink:href="#DejaVuSans-3a" transform="translate(424.462891 0.015625)"/>
      <use xlink:href="#DejaVuSans-20" transform="translate(458.154297 0.015625)"/>
      <use xlink:href="#STIXNonUnicode-Italic-e156" transform="translate(489.941406 0.015625)"/>
      <use xlink:href="#DejaVuSans-5b" transform="translate(553.8414 0.015625)"/>
      <use xlink:href="#DejaVuSans-Oblique-63" transform="translate(592.855072 0.015625)"/>
      <use xlink:href="#DejaVuSans-Oblique-6e" transform="translate(647.835541 0.015625)"/>
      <use xlink:href="#DejaVuSans-Oblique-6f" transform="translate(711.214447 0.015625)"/>
      <use xlink:href="#DejaVuSans-Oblique-74" transform="translate(772.396088 0.015625)"/>
      <use xlink:href="#DejaVuSans-Oblique-73" transform="translate(811.605072 0.015625)"/>
      <use xlink:href="#DejaVuSans-5d" transform="translate(863.704681 0.015625)"/>
      <use xlink:href="#DejaVuSans-3d" transform="translate(922.200775 0.015625)"/>
      <use xlink:href="#DejaVuSans-30" transform="translate(1025.47226 0.015625)"/>
      <use xlink:href="#DejaVuSans-2e" transform="translate(1089.095306 0.015625)"/>
      <use xlink:href="#DejaVuSans-39" transform="translate(1120.882416 0.015625)"/>
      <use xlink:href="#DejaVuSans-31" transform="translate(1184.505463 0.015625)"/>
     </g>
    </g>
    <g id="line2d_46">
     <path d="M 228.56 84.85 
L 244.56 84.85 
L 260.56 84.85 
" style="fill: none; stroke: #377eb8; stroke-width: 1.5; stroke-linecap: square"/>
     <g>
      <use xlink:href="#mcd033e4d6f" x="244.56" y="84.85" style="fill: #377eb8; stroke: #377eb8"/>
     </g>
    </g>
    <g id="text_17">
     <!-- Randomly Seeded: $\mathbb{E}[cnots] = 1.19$ -->
     <g transform="translate(273.36 90.45) scale(0.16 -0.16)">
      <defs>
       <path id="DejaVuSans-52" d="M 2841 2188 
Q 3044 2119 3236 1894 
Q 3428 1669 3622 1275 
L 4263 0 
L 3584 0 
L 2988 1197 
Q 2756 1666 2539 1819 
Q 2322 1972 1947 1972 
L 1259 1972 
L 1259 0 
L 628 0 
L 628 4666 
L 2053 4666 
Q 2853 4666 3247 4331 
Q 3641 3997 3641 3322 
Q 3641 2881 3436 2590 
Q 3231 2300 2841 2188 
z
M 1259 4147 
L 1259 2491 
L 2053 2491 
Q 2509 2491 2742 2702 
Q 2975 2913 2975 3322 
Q 2975 3731 2742 3939 
Q 2509 4147 2053 4147 
L 1259 4147 
z
" transform="scale(0.015625)"/>
      </defs>
      <use xlink:href="#DejaVuSans-52" transform="translate(0 0.015625)"/>
      <use xlink:href="#DejaVuSans-61" transform="translate(69.482422 0.015625)"/>
      <use xlink:href="#DejaVuSans-6e" transform="translate(130.761719 0.015625)"/>
      <use xlink:href="#DejaVuSans-64" transform="translate(194.140625 0.015625)"/>
      <use xlink:href="#DejaVuSans-6f" transform="translate(257.617188 0.015625)"/>
      <use xlink:href="#DejaVuSans-6d" transform="translate(318.798828 0.015625)"/>
      <use xlink:href="#DejaVuSans-6c" transform="translate(416.210938 0.015625)"/>
      <use xlink:href="#DejaVuSans-79" transform="translate(443.994141 0.015625)"/>
      <use xlink:href="#DejaVuSans-20" transform="translate(503.173828 0.015625)"/>
      <use xlink:href="#DejaVuSans-53" transform="translate(534.960938 0.015625)"/>
      <use xlink:href="#DejaVuSans-65" transform="translate(598.4375 0.015625)"/>
      <use xlink:href="#DejaVuSans-65" transform="translate(659.960938 0.015625)"/>
      <use xlink:href="#DejaVuSans-64" transform="translate(721.484375 0.015625)"/>
      <use xlink:href="#DejaVuSans-65" transform="translate(784.960938 0.015625)"/>
      <use xlink:href="#DejaVuSans-64" transform="translate(846.484375 0.015625)"/>
      <use xlink:href="#DejaVuSans-3a" transform="translate(909.960938 0.015625)"/>
      <use xlink:href="#DejaVuSans-20" transform="translate(943.652344 0.015625)"/>
      <use xlink:href="#STIXNonUnicode-Italic-e156" transform="translate(975.439453 0.015625)"/>
      <use xlink:href="#DejaVuSans-5b" transform="translate(1039.339447 0.015625)"/>
      <use xlink:href="#DejaVuSans-Oblique-63" transform="translate(1078.353119 0.015625)"/>
      <use xlink:href="#DejaVuSans-Oblique-6e" transform="translate(1133.333588 0.015625)"/>
      <use xlink:href="#DejaVuSans-Oblique-6f" transform="translate(1196.712494 0.015625)"/>
      <use xlink:href="#DejaVuSans-Oblique-74" transform="translate(1257.894135 0.015625)"/>
      <use xlink:href="#DejaVuSans-Oblique-73" transform="translate(1297.103119 0.015625)"/>
      <use xlink:href="#DejaVuSans-5d" transform="translate(1349.202728 0.015625)"/>
      <use xlink:href="#DejaVuSans-3d" transform="translate(1407.698822 0.015625)"/>
      <use xlink:href="#DejaVuSans-31" transform="translate(1510.970306 0.015625)"/>
      <use xlink:href="#DejaVuSans-2e" transform="translate(1574.593353 0.015625)"/>
      <use xlink:href="#DejaVuSans-31" transform="translate(1606.380463 0.015625)"/>
      <use xlink:href="#DejaVuSans-39" transform="translate(1670.00351 0.015625)"/>
     </g>
    </g>
   </g>
  </g>
 </g>
 <defs>
  <clipPath id="p405b88ff5a">
   <rect x="66.71" y="16.92" width="498.49" height="286.36"/>
  </clipPath>
 </defs>
</svg>
